<svg xmlns="http://www.w3.org/2000/svg" viewBox="0 0 193.33 201.36"><defs><style>.cls-1{fill:#262626;}</style></defs><title>DW KIOSK graphic 52</title><g id="Layer_2" data-name="Layer 2"><g id="Layer_1-2" data-name="Layer 1"><path class="cls-1" d="M72.8,42.66Q56.65,103.8,40.48,164.94a.5.5,0,0,0,1,.27Q57.61,104.07,73.76,42.93A.5.5,0,0,0,72.8,42.66Z"/><path class="cls-1" d="M32.13,189.14a38.06,38.06,0,0,0,3.64-8q2.16-5.74,4.3-11.49c.22-.61-.74-.87-1-.27-2,5.28-3.71,10.72-6,15.87-2.05,4.59-6.86,10.1-12.31,7.4A26.1,26.1,0,0,0,24.86,188a79.56,79.56,0,0,0,10.07-18.58c.23-.6-.74-.86-1-.27a78.53,78.53,0,0,1-7,14c-1.32,2.07-4,6.8-7,9.09a.48.48,0,0,0-.5.35c-1.62,1-3.31,1.34-4.93.14a8.72,8.72,0,0,0,1.25-1.34c5.08-6.68,9.35-14.17,14-21.18.36-.54-.51-1-.86-.51L18.75,185.05c-1.46,2.22-2.92,5.51-5.11,7.09-1.46,1.06-3.38,1.16-4.24-.65a4.6,4.6,0,0,1,.24-2.39,24.63,24.63,0,0,1,2-4.29,74,74,0,0,1,9.12-13.54c2.33-2.75,5.26-6.14,8.72-7.81a.46.46,0,0,0,.81-.2l0-.17a8.79,8.79,0,0,1,5.34-.43.5.5,0,0,0,.36-.92L52.14,91.16l8.08-35.4c1.1-4.81,1.93-9.87,4-14.37a14.15,14.15,0,0,1,12.3-8.62c6.13-.56,12.44-.17,18.59-.18l20.6,0a.47.47,0,0,0,.36-.16c.3.09.67-.06.63-.45q-.31-4-.65-8c0-.64-1.06-.64-1,0l.07.86c-3.1-.23-6.74-.54-9.1-2.78-2.06-2-2.84-5.86-.25-7.73.52-.37,0-1.24-.51-.86a4.76,4.76,0,0,0-1.12,1.12.5.5,0,0,0-.14-.15c-1.63-1.12-1.75-4,0-5.05a3.15,3.15,0,0,1,4.48,2.16c.12.64,1.09.37,1-.26a3.88,3.88,0,0,0-.64-1.45,13.13,13.13,0,0,1,5.52-6.28A11.42,11.42,0,0,1,118.28,2a4.31,4.31,0,0,1,3.5.71,2.65,2.65,0,0,1,.57,3.05l-.69.76c-.36.39.12,1.12.61.78l.09-.08h0l0,0a3.11,3.11,0,0,0,.78-.85c2.26-2.44,4.6-4.51,8-5.24a11.42,11.42,0,0,1-.35,5.2c-.12.28-.23.56-.32.82-.19.52.69.91.91.38l0-.12h0c0-.09.07-.18.1-.27s.15-.37.21-.56c.82-2.18,2-4.72,4.55-5,3.12-.31,3.85,2.58,2.72,4.88a6.82,6.82,0,0,1-.62,1c-.65.7-1.19,1.34-1.55,1.81s.26,1.19.7.71a12.1,12.1,0,0,0,.9-1.1,19.3,19.3,0,0,1,5.17-4.31,6.22,6.22,0,0,1,2.25-.88,2.49,2.49,0,0,1,2.56,3.26c-.72,2-3,2.81-4.77,3.48-.6.23-.34,1.2.27,1a14.52,14.52,0,0,0,1.86-.89,2.91,2.91,0,0,1,0,4.18,2.91,2.91,0,0,1-4.22-.74c-.34-.54-1.21,0-.87.51a4.08,4.08,0,0,0,.82.89.39.39,0,0,0-.2.16,17.74,17.74,0,0,1-18.35,7.06c-.63-.15-.89.82-.27,1l.58.11q-.25,3.64-.49,7.29c-.05.64.95.64,1,0l0-.35A153.15,153.15,0,0,1,158.66,34c.63.14.9-.83.27-1a154.29,154.29,0,0,0-35.08-3.48l.39-5.77A18.77,18.77,0,0,0,142.15,16a.52.52,0,0,0,.08-.19,3.77,3.77,0,0,0,4.14-.34,3.91,3.91,0,0,0,.25-5.51c2.43-1.61,4.58-4.12,2-6.61-2.26-2.18-5.72-.11-8.4,2.28.68-2,.53-3.94-1.91-4.88-2.71-1.06-4.69.53-6.06,2.65a18.66,18.66,0,0,0-.21-3,.52.52,0,0,0-.62-.35,14.06,14.06,0,0,0-7.79,4.43,4.09,4.09,0,0,0-.27-1.11A4.27,4.27,0,0,0,119,.89c-4.71.17-8.86,4-10.82,8.11a4,4,0,0,0-4.81-.39c-2.25,1.57-2,5.16.2,6.64a.36.36,0,0,0,.17.07,6.42,6.42,0,0,0,.54,6c2.25,3.65,7.11,4.14,11,4.44.16,1.92.32,3.85.47,5.77-12.35,0-24.78-.34-37.13.1-4.38.15-8.75,1-11.91,4.29-2.84,2.91-4.28,6.91-5.33,10.76-1.12,4.15-2.13,8.34-3.09,12.54a68.49,68.49,0,0,0-19.57,9.44C34,72,27.4,76.37,27.33,82.68a.49.49,0,0,0,.07.25.43.43,0,0,0,.2.59,9.08,9.08,0,0,1,3.19,2.24,13.62,13.62,0,0,1-5,4.78c-1.6.88-3.39,1.4-4.93,2.4-2.19,1.41-3.75,3.8-2.85,6.45a.47.47,0,0,0,.44.34,3.78,3.78,0,0,0,.63,4.1A6.84,6.84,0,0,0,20.73,105l.12,0a.39.39,0,0,0-.08.29c.33,3-3.56,4.71-5.66,6.14A57.64,57.64,0,0,0,9.94,115c-1.26,1.07-2.21,3.68.21,4,.63.08.9-.88.27-1-.74-1.27-.53-2.15.64-2.63l.76-.52c.75-.52,1.52-1,2.28-1.55,1.52-1,3-2,4.55-3.11,1.71-1.19,3.25-2.48,3.13-4.68a2.82,2.82,0,0,1,.62.9c1,.55,1.29,1.26.78,2.14a4.85,4.85,0,0,1-1,2.12,19.75,19.75,0,0,1-6.76,5.89.49.49,0,0,0,.06.88.53.53,0,0,0-.68.14,3.63,3.63,0,0,0-.52,3.43,2.67,2.67,0,0,0,.09.26.45.45,0,0,0-.39.23,31,31,0,0,1-10.38,11c-2.29,1.49-5,3.94-2.76,6.71.4.5,1.1-.21.7-.71-2.39-3,5.44-7,7.4-8.85a31.57,31.57,0,0,0,5.8-7.46,8.78,8.78,0,0,1,.76,1.85A6.38,6.38,0,0,1,14.4,129c-2.19,3.47-6.38,5.29-8.1,9.12-1.12,2.5-.74,5.45,2,6.67a6.44,6.44,0,0,0,5.66-.4l0,0A17.41,17.41,0,0,0,32.29,147l-2.85,15.38c-3.72,1.66-6.86,5.17-9.38,8.15C15.63,175.79,11.12,182,8.8,188.5c-.63,1.78-.81,4.11,1.13,5.13a3.59,3.59,0,0,0,3.73-.3c2.18,1.75,4.33,1.3,6.25,0C24.4,195.83,29.48,193.08,32.13,189.14ZM19,98.92c-1.32-4.44,4.48-5.93,7.37-7.51a14.48,14.48,0,0,0,5.05-4.69c1.11,2.43-.85,3.88-2.68,5.19-2.45,1.76-4.93,3.47-7.4,5.21a.5.5,0,0,0-.19.27A4.39,4.39,0,0,0,19,98.92ZM33.34,146.8c.35.16.87-.1.71-.56l0-.11.17-.09c.55-.34,0-1.2-.5-.87l-.06-.16c-.14-.42-.86-.52-1,0l-.15.81a16.34,16.34,0,0,1-17.66-1.9,26.29,26.29,0,0,0,2.45-1.67c.51-.38,0-1.24-.51-.86a14.08,14.08,0,0,1-4.7,2.7c-2.45.62-5.58-.53-5.42-3.52.18-3.41,3.57-5.76,5.84-7.87,1.8-1.67,3.6-3.74,4-6.24.46-2.67-2.56-6.13-.89-8.29a.4.4,0,0,0-.12-.62.5.5,0,0,0,.39,0c3.21-1.78,7.29-4.85,8.32-8.59a3.54,3.54,0,0,0-.92-3.72,7.42,7.42,0,0,0-1.69-.9,3.91,3.91,0,0,1-2.5-3.14c-.19-1.6,1.46-2.67,2.74-3a.43.43,0,0,0,.35-.52l6.21-4.37c1.42-1,3.17-2,4-3.62a3.63,3.63,0,0,0-.38-4l0,0a.51.51,0,0,0-.66-.7,12.9,12.9,0,0,0-3.09-2.17s0-.06,0-.09c.08-6.49,8.12-11.43,12.94-14.54A67.5,67.5,0,0,1,58,60.38c-1.65,7.26-3.15,14.56-4.8,21.79q-2.43,10.62-4.85,21.26a.5.5,0,0,0-.63.76v.16a17.2,17.2,0,0,0-14.64,0,2.17,2.17,0,0,0-1.45.37,2,2,0,0,0-.44.44,2.36,2.36,0,0,0-.54.46,2.18,2.18,0,0,0-.22.31,18.36,18.36,0,0,0-3,2.74c-.42.48.29,1.19.71.7A18.1,18.1,0,0,1,30,107.55a2.53,2.53,0,0,0,.73,1.71,2.45,2.45,0,0,0,3.67-.15,2.28,2.28,0,0,0,.44-1.59,2.4,2.4,0,0,0,0-1.75,2.2,2.2,0,0,0-.57-.84,16.1,16.1,0,0,1,13.56.59l-1.77,7.74a3.27,3.27,0,0,0-2.75-1.61A3.47,3.47,0,0,0,40,114.9c-.05.64.95.64,1,0a2.33,2.33,0,0,1,4.64,0s0,.08,0,.12l-1,4.48-.07.29a.46.46,0,0,0-.49,0,10.48,10.48,0,0,1-10.51.41c-.57-.29-1.08.57-.5.87a11.51,11.51,0,0,0,11.27-.29l-9.3,40.76a9.8,9.8,0,0,0-4.52.43Q31.94,154.39,33.34,146.8Z"/><path class="cls-1" d="M43.15,160.74c-.64,0-.64,1,0,1,6.85-.46,5.73,11.84,5.45,16.11-.19,3-.24,6.72-2.28,9.08-1.35,1.55-3.86,2.61-5.55.86a3.65,3.65,0,0,1-.38-4.52.45.45,0,0,0-.24-.69c1.25-3.45,2.37-7,3.62-10.36.22-.61-.74-.87-1-.27l-4.47,12.2c-1.15,3.12-3.59,11.66-8.62,8.18-.53-.37-1,.5-.5.86,3.39,2.34,6.75-.68,8.17-3.74.52-1.13,1-2.27,1.46-3.43a4.36,4.36,0,0,0,2.68,3.47c3.58,1.37,6.43-2.33,7.24-5.33,1.39-5.15,1.28-11.25.6-16.49C48.92,164.26,47.15,160.47,43.15,160.74Z"/><path class="cls-1" d="M157.52,34.41q.48,40.5.94,81a.5.5,0,0,0,1,0q-.47-40.5-.94-81A.5.5,0,0,0,157.52,34.41Z"/><path class="cls-1" d="M145,150.82c-.6.22-.34,1.18.26,1a2.84,2.84,0,0,0,.52-5.11c-3.2-2-6.23,1.35-7.45,4A15.36,15.36,0,0,0,137,156.6c0,1-.17,3.81.71,4.58,2.23,1.93,5.72-1,6.36-3.06.19-.62-.78-.88-1-.27-.5,1.61-3.12,3.8-4.65,2.28-1-1-.43-4.68-.18-5.89a13.31,13.31,0,0,1,1.72-4.47,5.42,5.42,0,0,1,3-2.54C145,146.71,147.76,149.8,145,150.82Z"/><path class="cls-1" d="M133.19,161.4c0-.64-1-.64-1,0a8.77,8.77,0,0,0,17.33,2,.5.5,0,0,0-1-.27,7.77,7.77,0,0,1-15.37-1.73Z"/><path class="cls-1" d="M153.57,140.51a.5.5,0,0,0-.1-.22c-.35-1.47-2.36-1.86-3.75-1-1.78,1.05-3.9,3.56-3.39,5.77a3,3,0,0,0,.13.36,1.81,1.81,0,0,0,1.11,1.34l.17.07.15.05a3.83,3.83,0,0,0,3.24-.47A5.71,5.71,0,0,0,153.57,140.51ZM148.31,142a12.86,12.86,0,0,1,1.18-1.27,4,4,0,0,1,.91-.67c1-.56,1.68-.22,2.11,1a.45.45,0,0,0,.16.47,4.59,4.59,0,0,1-.87,2.87,5,5,0,0,1-1.11,1.08,2.17,2.17,0,0,0,0-1.91,2.09,2.09,0,0,0-2.8-.95C148,142.36,148.16,142.14,148.31,142Z"/><path class="cls-1" d="M140.32,139c-1.46.74-3.11,1.79-3.38,3.45a1.64,1.64,0,0,0,.1,1.34c.53,1.76,2.6,2,4.11,1.18,1.7-.91,3.41-2.84,2.67-4.9A2.25,2.25,0,0,0,140.32,139Zm2.61,2.61a4.46,4.46,0,0,1-2.79,2.72,1.85,1.85,0,0,0-.64-3.06,1.74,1.74,0,0,0-.77-.08,6.43,6.43,0,0,1,1.59-1.07.39.39,0,0,0,.43-.15,1.36,1.36,0,0,1,.12-.12l.08-.05a.37.37,0,0,0,.2-.19C142.16,139,143.2,140.51,142.93,141.63Z"/><path class="cls-1" d="M112.9,18.28a18.66,18.66,0,0,0,17-.71.5.5,0,0,0-.5-.87,17.61,17.61,0,0,1-16,.72C112.83,17.16,112.32,18,112.9,18.28Z"/><path class="cls-1" d="M125.44,10.29c-1.38-.09-2.35,1.54-2.42,2.75a1.46,1.46,0,0,0,1.87,1.63,2,2,0,0,0,1-.69l0,0a2.67,2.67,0,0,0,.63-1.42,2.31,2.31,0,0,0-.05-.46A1.22,1.22,0,0,0,125.44,10.29Z"/><path class="cls-1" d="M120.25,10.19h-.1a.77.77,0,0,0-.36.09A1.7,1.7,0,0,0,119,11l-.11.15c-.45.8-.79,3,.47,3.15a1.2,1.2,0,0,0,1,0c1-.43,1.34-2.13,1-3l0-.06A1.11,1.11,0,0,0,120.25,10.19ZM120,11.58l0,0v0S120,11.58,120,11.58Z"/><path class="cls-1" d="M103,98.43a1.85,1.85,0,0,0-.28-1.49l2-.07c.64,0,.64-1,0-1L102,96a.8.8,0,0,0-.26-.09,1.93,1.93,0,0,0-.83.13L98,96.11c-.64,0-.65,1,0,1L99.71,97a1.69,1.69,0,0,0,.13,1.8C100.66,99.93,102.59,99.9,103,98.43Zm-2-.93a.37.37,0,0,1,.21.06v.5a.37.37,0,0,1-.31.07.34.34,0,0,1-.06-.25A.7.7,0,0,1,101,97.5Z"/><path class="cls-1" d="M193,195.94a74.28,74.28,0,0,0-17.08-1.22.4.4,0,0,0-.43-.23l-7.31.8a4.64,4.64,0,0,0,2.79-4.2c0-3.7-4.45-4.72-7.17-3.24-.93.51-1.47,1.42-2.3,2-1.24.84-3.48.5-4.93.56l-10.11.4a26.75,26.75,0,0,0,.66-9.79l1.75,5.05a.51.51,0,0,0,.92.12l3.46-6.22,1.65,3.24a.5.5,0,0,0,.91-.12q1.11-4.79,2.2-9.55l3,5.3a.51.51,0,0,0,.92-.12l2.55-10.9a4.2,4.2,0,0,0,3.13,2.23.5.5,0,0,0,.63-.48q-.42-7.49-.83-15l2.42,2.07c.25.21.77.18.83-.22a22.9,22.9,0,0,0-1.82-12.79,8.29,8.29,0,0,0,1.74-1.81.43.43,0,0,0,.37,0,7,7,0,0,0,4.75-5.8,6.84,6.84,0,0,0,2.21-5.57.45.45,0,0,0,.09-.43,19.92,19.92,0,0,0-19.2-14,.5.5,0,0,0,0,1,18.88,18.88,0,0,1,17.95,12.5s0,0,0,0a5.84,5.84,0,0,1-.91,4.91c0-.08,0-.16,0-.24-.15-4.59-3.76-8.15-6.83-11.14-.46-.45-1.17.26-.71.71,2.54,2.48,5.35,5.16,6.28,8.71a8.11,8.11,0,0,1,.19,3.07l-.1.09a.55.55,0,0,0-.07.8,6,6,0,0,1-3.33,4.22,12.74,12.74,0,0,0,1.1-8.08,16.39,16.39,0,0,0-11.86-12.52.5.5,0,0,0-.26,1A15.43,15.43,0,0,1,171,131.5c1.11,3.79.43,8.74-2.68,11.24-.23-.45-.47-.91-.73-1.35a9.84,9.84,0,0,0,.09-4.61c-1.08-4.83-5.07-8.07-8.77-11-.5-.4-1.21.31-.71.7,3.73,2.93,7.88,6.22,8.61,11.21.39,2.64-.34,5.54-2.76,7-2.59,1.54-6,1-7.18-2.07-1.27-3.38.36-7.51-1.85-10.63-1.42-2-4.26-2.7-6.12-1-.47.44.24,1.15.71.71,2-1.89,4.52.21,5.24,2.17a14.38,14.38,0,0,1,.47,4.63,11.08,11.08,0,0,0,1.08,5.42c1.63,2.79,5.17,3.2,7.89,1.76a6.57,6.57,0,0,0,1.17-.81.44.44,0,0,0,.46.12,7.51,7.51,0,0,0,2-.82,21.6,21.6,0,0,1,1.78,11.1l-2.58-2.21a.51.51,0,0,0-.86.35l.86,15.43a3.51,3.51,0,0,1-2.24-3.2.5.5,0,0,0-1-.13l-2.73,11.66-2.95-5.31a.51.51,0,0,0-.92.12c-.72,3.16-1.45,6.31-2.18,9.47-.48-1-1-1.9-1.45-2.85a.51.51,0,0,0-.86,0l-3.38,6.07-2.24-6.44a1,1,0,0,0-1.44.65,25.61,25.61,0,0,1-.45,12.27.51.51,0,0,0,.48.63c4.89-.19,9.78-.35,14.67-.57,1.78-.09,1.29-.55,2.76-1.79a4.56,4.56,0,0,1,5-1c2,1,2,3.14.78,4.73-1.61,2-4.74,2.3-7.14,2.69s-5,.72-7.58.91c-.44,0-.88,0-1.32.08l-6.69.16c-2.17,0-4.35-.12-6.51-.29l1.65-15.86c.06-.64-.94-.64-1,0q-.85,8.23-1.72,16.48c-7.73.09-15.67,1.1-23.38.53-.91-.06-2.95-.21-3.52-1.13-.09-.95-.19-1.9-.28-2.85a3.84,3.84,0,0,1,2.44-1.82c2-.63,4.5-.11,6.56.05l12.67,1c.64,0,.64-1,0-1h-.09c.24-1.55.49-3.09.74-4.64a.51.51,0,0,0,0-.25.41.41,0,0,0,.11-.24q.62-4.29,1.21-8.58c.06-.37-.33-.86-.73-.57l-11.7,8.61q2-5.11,4-10.24c.16-.42-.39-.78-.74-.57l-10.44,6.43,6.42-10.9a.51.51,0,0,0-.57-.74l-10.57,3.85,9.76-11.9a.5.5,0,0,0-.49-.83l-4.59.9a31,31,0,0,1,13-12.42c.52-.26.15-1-.39-.91l-5.31,1.23,10.29-13.7a.38.38,0,0,0,.09-.29,6.52,6.52,0,0,0,3.71-.36c4.68-1.86,6.67-8.36,12.32-8,.65,0,.64-1,0-1-2.58-.17-4.69,1.06-6.55,2.77-2.59,2.4-5.41,6.85-9.56,5.5-6-1.95-.65-8.66,2.18-10.78a21,21,0,0,1,10.91-4.09c.63,0,.64-1,0-1a22.14,22.14,0,0,0-11.58,4.33c-2.86,2.17-6.06,5.61-4.86,9.52a4.32,4.32,0,0,0,2.55,2.83l-.07.06L121.12,151c-.28.37.18.82.56.73l3.41-.79A31.91,31.91,0,0,0,114,163a.51.51,0,0,0,.57.73l4.3-.84-10,12.22c-.28.35,0,1,.49.84l11-4-6.73,11.44a.5.5,0,0,0,.68.68l10.9-6.7q-1.89,4.86-3.77,9.73l-15.74-.55-5.13-32.26a6.27,6.27,0,0,0,2.33.68c3.71.34,6.77-2.66,7.53-6.1a.5.5,0,0,0-.38-.6,18.66,18.66,0,0,0,12.56-13.77c1.53-7.1-2.08-16.21-10.36-15.94q-.08-3.08-.17-6.15a.48.48,0,0,0-.09-.27,10.09,10.09,0,0,0,3.46-1.78c4-3.19,6.22-8.91,6.85-13.89a8.38,8.38,0,0,0-.88-5.25c1.38-2,3.73-.89,4.62.74a7,7,0,0,1,.6,3.5,32,32,0,0,1-.92,5.91,53.49,53.49,0,0,1-3.65,10.85.42.42,0,0,0,0,.15l0,0c-.41.49.29,1.2.71.71a32.8,32.8,0,0,0,8-18.61c.37-4.8-2.28-11.69-8.19-10.13,0-6-6.61-9.12-12.15-8.89A16.74,16.74,0,0,0,95.83,85.4a11.91,11.91,0,0,0-15.92,9.36.54.54,0,0,0,.66.61.43.43,0,0,0,.66-.17c1.45-2.86,4.34-5.27,7.78-4.45,3.85.92,5,5.35,2.94,8.45a.84.84,0,0,0-.06.14,245.3,245.3,0,0,0-24.17,7.3.5.5,0,0,0,.13,1l24.26,1.43a.46.46,0,0,0-.15.36l0,2.4a.55.55,0,0,0,.11.3l-.27,5.69c-10.77-.18-23.16,4.68-24.92,16.66A13.89,13.89,0,0,0,78.1,150a.48.48,0,0,0-.44.61c1.5,5.62,8,4.95,10.88,1.4A88.34,88.34,0,0,1,80,187.67h0l-27.59.28a.51.51,0,0,0-.5.5L52,200.66a.5.5,0,0,0,.5.5l35.3.13a.54.54,0,0,0,.56,0,.49.49,0,0,0,.29-.74q2.61-21.37,5.2-42.75a355,355,0,0,1,4.46,38.89.51.51,0,0,0,1,.19.5.5,0,0,0,.47.5l11.5.79a.38.38,0,0,0,.4-.2c2.45,1.78,7.16,1,9.63.94,6-.15,11.94-.45,17.91-.49a.46.46,0,0,0,.35-.15l6.87-.17q3.3,0,6.57-.16l39.9-1C193.38,196.91,193.54,196.05,193,195.94Zm-26.5-52.14a6.63,6.63,0,0,0,.67-1.15c.12.22.25.44.36.66A7,7,0,0,1,166.47,143.8Zm-33.51,43a.52.52,0,0,0,0,.25.42.42,0,0,0-.12.24c-.26,1.6-.51,3.21-.77,4.82l-1.29-.1c.05-1.72.09-3.44.14-5.16a.5.5,0,0,0-.5-.5l-6.21.27,9.76-7.17C133.65,181.91,133.31,184.36,133,186.81ZM85.72,127.29A87.45,87.45,0,0,1,88.4,144a6.64,6.64,0,0,0-1.45-1.4c-2.08-1.45-4.37-.86-6.67-1.57-3.72-1.15-4.92-5.42-3.22-8.71S82.25,127.64,85.72,127.29Zm13.54,69.35a355.43,355.43,0,0,0-5-42.28l.09-.69c.07-.64-.93-.63-1,0l0,.12a.5.5,0,0,0-.11.42,1.16,1.16,0,0,1,0,.18l-5.58,45.9-17.8-.06-9.44,0-4.47,0c-2,0-3,.43-3-1.86l0-4.23c0-1.3-.35-3,0-4.23.36-1.4,2.13-.94,3.43-.95l4.93-.05L80,188.66a.35.35,0,0,0,.14,0,.42.42,0,0,0,.62-.19,89.43,89.43,0,0,0,8.87-38.28,6,6,0,0,0,.09-3.68c0-.14-.11-.27-.16-.41a88.66,88.66,0,0,0-3-19.58.49.49,0,0,0-.83-.2c-3.48.34-6.89,1.61-9,4.58a7.53,7.53,0,0,0-.1,8.88c2.75,3.63,7.77,1.43,10.69,4.56a5.65,5.65,0,0,1,1.16,1.89c0,1.22.07,2.45.06,3.67a5.51,5.51,0,0,1-1.41,2.32c-2.66,2.58-7.51,2-8.55-1.85a.43.43,0,0,0-.22-.28,13.7,13.7,0,0,0,6-.32.5.5,0,0,0-.26-1c-9.86,2.73-18.55-6.5-15.79-16.16,2.94-10.29,13.92-14,23.62-13.82h0a.51.51,0,0,0,.81-.39c.1-2,.19-4.06.29-6.1l8.61,0a.5.5,0,0,0,0-1l-8.71,0h0l0-1.89a.43.43,0,0,0-.13-.32l4.6.27c.65,0,.64-1,0-1l-27.07-1.59a245.28,245.28,0,0,1,28.16-8c.63-.14.36-1.1-.26-1-1.69.36-3.37.76-5,1.16a6.34,6.34,0,0,0-3.06-8.94c-3.43-1.39-6.79.36-8.82,3.08a10.94,10.94,0,0,1,14.15-6.83.51.51,0,0,0,.74.31,11.35,11.35,0,0,1,3,2c.47.43,1.18-.27.71-.71a12.57,12.57,0,0,0-3.2-2.15,15.77,15.77,0,0,1,11.22-9c5.15-1,13.25,1,13.56,7-1.84-2.61-5.82-3.09-8.85-2.64a14.4,14.4,0,0,0-10.33,7.11.5.5,0,0,0,.86.5,13.36,13.36,0,0,1,8-6.26c2.6-.74,6.71-.89,8.89,1.11A18,18,0,0,0,106,89.71c-.42.48.28,1.19.71.71a17,17,0,0,1,14-5.77l.15,0a3.94,3.94,0,0,1,.42.93.45.45,0,0,0,.17.23c.16.41.84.52.93,0,0-.13,0-.24,0-.37,3.27-1,6,1.43,6.92,4.4.86,2.72.36,5.9-.26,8.62a31.81,31.81,0,0,1-4.75,10.9,52,52,0,0,0,1.94-6c.75-3,1.68-6.47,1.32-9.56-.38-3.28-4.3-6.59-6.82-3.38a4,4,0,0,0-3.92-.91c-5,1.09-9.09,6.36-11.3,10.64-.3.57.57,1.07.86.5a22.88,22.88,0,0,1,7.73-8.83c2.18-1.41,5.72-2.44,7,.72.71,1.8.23,4.1-.17,5.88-.81,3.62-2.33,7.48-5,10.15-3,3-7.87,4.28-11.2,1-.46-.45-1.17.26-.71.71a7.85,7.85,0,0,0,7.06,2s0,0,0,.06l.18,6.56a.77.77,0,0,0,0,.34v.11a.5.5,0,0,0,1,.14c8.34-.26,11.06,9.46,9,16.19A17.94,17.94,0,0,1,104,148.25a.5.5,0,0,0,0,1,19.87,19.87,0,0,0,5.57-.84.48.48,0,0,0-.09.19c-.61,2.79-2.87,5.32-5.9,5.39-3.32.07-6.24-3.17-5.47-6.46,1.36-5.8,8.86-6.45,13.13-9.17,2.74-1.74,5.17-4.93,4.2-8.36a4.67,4.67,0,0,0-6.07-3.16c.06-.37-.32-.79-.72-.52a21,21,0,0,0-9.34,17.28A7.1,7.1,0,0,0,97,148.42a6.27,6.27,0,0,0,2.85,5.4.54.54,0,0,0-.24.54q2.55,16.13,5.12,32.24a.52.52,0,0,0,.14.88l.06.37c.1.63,1.06.36,1-.27v0l15.3.54a.5.5,0,0,0,.73.3l.93-.68,7.14-.32c-.05,1.52-.09,3-.13,4.56l-5.54-.45a67.13,67.13,0,0,0-8.73-.58c-2.77.14-6.71,2.47-5,5.77a3.29,3.29,0,0,0,.28.44l-11.08-.76A.42.42,0,0,0,99.26,196.64Zm9.41-69.14a.53.53,0,0,0,.75.38c2.4-1.17,5,.8,5.18,3.27a6.47,6.47,0,0,1-1.89,4.73c-2.16,2.32-5.39,3.25-8.21,4.45a18.88,18.88,0,0,0-4.2,2.37A20,20,0,0,1,108.67,127.5Z"/></g></g></svg>