<svg width="635" height="603" viewBox="0 0 635 603" fill="none" xmlns="http://www.w3.org/2000/svg">
<g clip-path="url(#clip0)">
<path d="M584.1 261.4L574.9 261.3C577.9 259.4 580.8 257.5 583.8 255.6C585.1 254.7 586.9 253.6 588.8 252.4C604.8 242.2 634.7 223.2 634.6 206.9C634.6 203.7 633.3 201.3 630.7 199.9C620.8 194.2 590.4 203.2 540.4 226.6C524.2 234.2 508.4 242.1 495.3 248.9C506.1 240.6 514.1 231.9 513.9 224.3C513.8 219.9 510.9 216.3 505.4 213.5C504.8 213.2 504.1 212.9 503.5 212.6C531.7 191 560.1 168.9 587.5 146.4C590.4 144 594.1 141.3 597.9 138.5C610.3 129.4 625.7 118.1 630.5 105.8L631.5 103.4L628.9 103.8C615 105.9 600.4 117.3 587.5 127.3C583.8 130.2 580.3 132.9 577.1 135.1C554.7 150.9 531.6 168.3 507.4 187.5C507 181.9 504.1 177 498.8 172.9C495.4 170.2 491.4 168.1 487.2 166.4C484.9 163.4 481.7 160.6 477.7 158.2C450.9 142 411.2 142.8 379.2 143.4C375.2 143.5 371.2 143.6 367.5 143.6C315.3 144.2 269.7 148.2 227.8 155.8C226.1 156.1 224.4 156.4 222.5 156.8C195.8 161.6 155.5 168.8 142.4 194C136 206.5 139.3 218.8 146.7 229.7C118 212.9 89.4 198.5 80.4 201.9C79.5 202.2 78.7999 202.7 78.2 203.4C55.7999 194 36.6 188.7 28.1 193.4C24.8 195.3 23.1 198.4 23.2 202.9C23.4 221.4 49.6 241.1 65.2 252.9C66.7 254.1 68.1 255.1 69.4 256.1C86.8 269.4 106.1 281.4 127 291.9C127.6 296.9 129.5 301.8 131.7 306.3C136 315 141.6 322.9 147.9 330.2C102.1 326.8 73.1 331 61.5 342.8C56.8 347.5 55 353.5 56 360.5C58.6 377.7 82.8 386.5 97 390.2C122.4 396.8 149.2 395.3 174.2 391.1C167.9 394 164.7 396.7 164.9 399.2C165.1 402.6 170.2 404.9 181.3 406.4C188.2 407.4 195.1 408 202.1 408.3C201.1 408.8 200.1 409.3 198.9 409.9C193.1 412.8 187.4 415.9 181.6 419L174 413V423C151.1 436.2 129.2 451.8 111.6 472.2C93.3999 493.4 86 510.5 89.9 523C91.7 529 95.3 532.7 100.4 534C108 535.8 118.9 532.3 133 523.4C133.9 524.1 135 524.6 136.2 524.7C136.5 524.7 136.7 524.7 137 524.7C142.1 524.7 150.7 519.9 162.5 510.3V512.9L181 499.2C180.2 503.5 180 507.6 180.5 511.5C181.9 523.6 189.1 533.7 201.9 541.4C218 551.2 238.8 556.1 264 556.1C264.2 556.1 264.4 556.1 264.6 556.1C264.7 556.2 264.8 556.3 264.9 556.4C287.9 574 317.6 581.7 346.3 577.9C373.7 574.3 398.7 559.5 415.9 538C425.4 526.1 432.4 512.4 436.3 497.6C436.4 497.1 436.3 496.6 436 496.3C452.3 484 464.2 470.5 466.4 456.7C467.9 447.6 465.2 439.1 458.3 431C458.5 430.9 458.6 430.8 458.8 430.7C479.7 442.8 498.8 453.6 518.8 463.9C520.3 464.7 521.9 465.5 523.4 466.4C530.1 470 537 473.7 544.3 475.3L549.1 476.3L545.7 472.8C540.1 466.9 532.4 462.7 525 458.6C523 457.5 521.1 456.4 519.3 455.4C502 445.3 484.2 435.5 466.6 425.9C467 425.6 467.4 425.3 467.8 425.1C480.6 416.3 486.2 408 484.7 400.4C483.4 394.2 477.6 389.5 470.5 386.2C496.5 390 526.4 391.4 555.1 383.4C580.9 376.2 595 366.6 597 354.8C598 349 596.5 344.1 592.6 340.1C590.8 338.3 588.6 336.7 586 335.4C610.1 332 628.7 320.7 629.9 297C630.9 271.8 606 262.6 584.1 261.4ZM454.9 338C455.7 337.9 456.9 337.7 458.4 337.5C470.6 335.7 481.7 334.4 491.8 333.3C492.2 333.3 492.7 333.4 493.1 333.4C481.8 341.5 462.5 345.2 446.8 348.3C443.5 348.9 440.3 349.6 437.3 350.2C435.5 350.3 433.8 350.4 432.3 350.4C431.1 350.5 430.2 350.5 429.6 350.5V351.9C390.2 361.3 349.4 368.6 308.5 373.6L307.3 373.8C275.6 377.7 242.8 381.7 211.1 379.7C205.2 379.3 202.5 378.8 201.3 378.5C203.1 377.6 208.5 375.7 224.5 372.7L224 369.7C198.1 374.2 168 378.7 138.8 374.5L137.8 374.4C130.5 373.4 108.1 370.2 107.5 361C107.3 358.8 108.1 356.9 109.8 355.2C120.6 344.4 163.2 344.2 202.3 346.5C206.2 347.1 211.6 347.4 218.3 347.7C219.7 347.8 221 347.8 221.9 347.9C222 347.9 222.1 347.9 222.1 347.9L222.3 344.9C222.2 344.9 222.1 344.9 222.1 344.9C221.2 344.8 219.9 344.7 218.1 344.6C212.7 344.2 207.5 343.8 202.5 343.5C199.7 343.1 197.5 342.6 196.9 341.8C197.1 341.5 197.9 340.5 201.6 338.9C217.2 331.8 239.3 330.5 258.9 329.4C267.7 328.9 276 328.4 283.5 327.5C286 327.2 288.5 326.8 291 326.5C290.4 328 290 329.7 290 331.5C290 339 296 345 303.5 345C311 345 317 339 317 331.5C317 328.5 316 325.7 314.3 323.5C343.3 319.6 371.6 315.4 398.8 311C393 314 389 320 389 327C389 336.9 397.1 345 407 345C416.9 345 425 336.9 425 327C425 317.9 418.3 310.5 409.6 309.2C417.1 307.8 424.9 306.1 433.1 304.2C436.7 303.4 440.3 302.6 444 301.8C442.5 302.5 441 303.2 439.3 303.9C437.4 304.7 435.4 305.5 433.5 306.3L434.6 309.1C436.9 308.2 439 307.3 441 306.4C447 303.9 452.9 301.3 458.5 298.8C470.8 296.6 482.9 295.1 494.2 295.8C496.1 295.9 497.7 295.7 499 295.6C499.2 295.6 499.4 295.6 499.6 295.5C499.5 295.7 499.3 296 499.1 296.3C485.9 301.6 472 306.6 457.4 311.3L458.3 314.2C460.4 313.5 463.6 312.8 467.2 311.9C479.1 309.1 495.3 305.3 500.9 298.8C508.8 295.6 516.4 292.3 523.8 288.9C523.5 290 524.7 291.4 526 290.6C529.2 288.7 534 286.8 537.1 288.3C536.6 295.4 536.3 302.3 536.5 309C533.8 315.7 529.8 321.6 524.8 326.7C524.4 327.1 524.3 327.6 524.4 328C514 328.4 503.1 329.3 492.2 330.4C483.5 329.8 473.8 331.6 465.1 333.3C461.4 334 458 334.6 454.8 335.1L454.9 338ZM156.5 319.4C156.3 316.4 157.5 313.5 159.7 311.4C159.9 311.3 160 311.1 160 310.9C161.2 311.2 162.4 311.3 163.6 311.3C165.5 311.3 165.5 308.3 163.6 308.3C162.3 308.3 161 308.1 159.7 307.7C159.4 307.2 158.9 307 158.3 307.2C156.3 306.3 154.5 305 153 303.3C160 306.2 167.1 308.9 174.3 311.4C175.5 311.9 176.7 312.3 177.9 312.7C170.1 313.6 160 314.9 156.6 319.1C156.6 319.3 156.6 319.4 156.5 319.4ZM150.1 296.4C149.9 294.5 146.9 294.5 147.1 296.4C147.1 296.8 147.2 297.2 147.3 297.6C141.5 295.1 135.7 292.4 130.1 289.6C129.9 284.3 131.3 278.9 135.5 275.2C140.7 270.5 150.1 271.9 152.3 279C152.6 279.9 153.5 280.2 154.2 280C153.4 280.8 152.7 281.7 152 282.7C149.5 286.5 148.9 290.3 150.2 294C151.2 296.6 153 299 155.5 301.2C153.9 300.5 152.2 299.8 150.6 299.2C150.4 298.3 150.2 297.4 150.1 296.4ZM185.6 277.9C186.3 282.1 188.8 286.2 193.1 290.3C183.5 285.4 174.5 280.6 165.9 275.6C171.9 272.8 179.2 270.7 186.9 269.1C185.5 272 185.1 274.9 185.6 277.9ZM214.2 303.9C215.4 304.5 216.6 305 217.9 305.6L219.1 302.9C217.9 302.3 216.7 301.8 215.5 301.2C199.1 293.3 189.8 285.1 188.5 277.3C188 274.3 188.7 271.3 190.6 268.3C193.9 267.7 197.2 267.1 200.5 266.7C204.2 269.1 207.6 271.4 210.7 273.5C209.4 276 208.6 278.9 208.6 281.9C208.6 291.8 216.7 299.9 226.6 299.9C236.5 299.9 244.6 291.8 244.6 281.9C244.6 272 236.5 263.9 226.6 263.9C220.8 263.9 215.7 266.6 212.4 270.9C210.2 269.3 208.1 267.6 206.1 266C209.9 265.5 213.6 265.1 216.9 264.7C221.4 264.2 225.4 263.7 228.5 263.2C264.6 257.6 303.5 253 354.8 248.4C361.2 247.8 367.7 247.1 374.5 246.4C401.6 243.4 429.7 240.3 454.5 245.7C455.3 245.9 456 246 456.7 246.2L457.6 247.3L457.9 247.1C458.1 247 458.3 246.8 458.5 246.7C463.6 248.3 466.4 250.5 466.9 253.2C467.5 256.9 464.2 265.6 435.3 282.6L436.2 284.1C424.1 284.5 411.8 285.6 399.7 287.1C404 283.8 406.8 278.6 406.8 272.8C406.8 262.9 398.7 254.8 388.8 254.8C378.9 254.8 370.8 262.9 370.8 272.8C370.8 280.2 375.3 286.6 381.7 289.4C380.4 289.6 379.1 289.7 377.7 289.9C369.2 291 360.4 292.2 351.8 293.1C332 295.3 311.9 297.4 292.5 299.5C272.2 301.7 251.2 303.9 230.6 306.2L227.1 306.6C213.3 308.1 199.1 309.7 185.1 311.9C182 310.9 179 309.9 176 308.8C165.9 304.9 155.6 299.5 153.2 292.9C152.2 290.1 152.7 287.3 154.6 284.3C156.4 281.5 159.3 279.2 162.8 277.2C178.3 286.3 195.3 295.1 214.2 303.9ZM161.6 242C172.6 248.7 183.2 255.5 192.6 261.5C192.5 261.6 192.4 261.7 192.3 261.8C191.6 262.4 191 263.1 190.4 263.7C183.7 259.4 171.8 251.7 161.6 242ZM193.6 264.8C193.8 264.5 194.1 264.3 194.4 264C194.7 263.7 195 263.5 195.2 263.2C195.7 263.5 196.3 263.9 196.8 264.2C195.7 264.4 194.7 264.6 193.6 264.8ZM449.8 238.7C461.2 229 472.3 219.7 483.1 210.8C486.6 211.1 489.9 211.6 493.1 212.3C484.9 222 473.8 231.1 465.2 237.8C462.8 239.6 460.5 241.4 458.1 243.2L457.8 243.5C457 243.3 456.1 243.1 455.2 242.9C429.9 237.4 400.3 240.7 374.2 243.5C367.4 244.3 360.9 245 354.5 245.5C303.1 250.1 264.1 254.6 228 260.3C225 260.8 221.1 261.2 216.5 261.7C212.3 262.2 207.7 262.7 203 263.3C201.7 262.1 200.4 261 199.2 259.9C216.7 247 244.5 242.3 267.3 238.4C272 237.6 276.4 236.8 280.4 236.1C320.8 228.3 363.6 222.1 411.1 217.2C416.2 216.7 422.2 215.8 428.5 214.9C442.9 212.8 459.4 210.4 474.3 210.6C465.1 221.7 453.8 231.4 447.7 236.6L449.8 238.7ZM477 212C477.4 211.5 477.8 211 478.2 210.6C478.4 210.6 478.6 210.6 478.8 210.6C478.2 211 477.6 211.5 477 212ZM495.2 209.7C492.4 209 489.4 208.5 486.3 208.1C492.2 203.3 497.9 198.6 503.7 194C502.4 199.2 499.3 204.5 495.2 209.7ZM497.4 213.4C496.2 214.4 494.9 215.3 493.7 216.3C494.6 215.3 495.5 214.2 496.4 213.1C496.7 213.2 497 213.3 497.4 213.4ZM462.4 267.7C461.7 268.1 461.1 268.4 460.4 268.8C461 268.3 461.5 267.8 462.1 267.2L462.4 267.7ZM159 321.1C161.8 317.6 172.9 316.4 179.5 315.7C181.4 315.5 183.1 315.3 184.3 315.1C184.4 315.1 184.5 315.1 184.5 315.1C187.8 316.1 190.7 317 193 317.6C193.8 317.8 194.5 318 195.1 318.2H195.2L196 315.3C194.5 314.8 193 314.4 191.4 313.9C203.3 312.1 215.5 310.8 227.2 309.5L230.7 309.1C251.3 306.8 272.3 304.6 292.6 302.4C312.1 300.3 332.2 298.2 352 296C360.6 295.1 369.4 293.9 378 292.8C401.9 289.7 426.6 286.4 450.5 287C461.5 287.3 462 289.3 462 289.4C462.2 290.5 459.9 292.9 453.7 296.4C446.4 297.8 439.2 299.5 432 301.1C422.1 303.3 412.8 305.4 403.9 306.9C374.3 311.7 343.2 316.3 311.2 320.6C308.9 318.9 306.1 317.8 303 317.8C298.6 317.8 294.8 319.9 292.3 323.1C289.1 323.5 285.8 323.9 282.5 324.4C275.2 325.3 266.9 325.8 258.1 326.3C238.3 327.4 215.9 328.7 199.8 336.1C199 336.5 198.2 336.9 197.4 337.3L197.7 335.5C197.5 335.5 197.4 335.5 197.2 335.4C196.3 335.3 195.3 335.1 194 334.9C190.6 334.4 187.2 334 184 333.5C168.2 330.9 159.4 327.9 158 324.3C157.8 323.8 157.6 322.8 159 321.1ZM536.5 315.3C536.9 319.6 537.5 323.8 538.5 327.7C534.9 327.7 531.2 327.7 527.5 327.9C531 324.1 534.1 319.9 536.5 315.3ZM537 285C535.6 284.5 534.1 284.4 532.7 284.6C534.2 283.9 535.7 283.1 537.2 282.4C537.1 283.2 537.1 284.1 537 285ZM629.3 202.4C630.9 203.3 631.7 204.7 631.7 206.8C631.7 221.5 601.7 240.6 587.2 249.8C585.2 251.1 583.5 252.2 582.1 253.1C577.9 255.9 573.6 258.6 569.2 261.3L538.7 261.1C538.4 267 537.9 272.9 537.4 278.9C526.4 284.4 514.8 289.7 502.8 294.6C502.8 294.2 502.7 293.8 502.5 293.5C502 292.7 501.2 292.4 500.2 292.4C499.6 292.4 499 292.5 498.3 292.5C497.1 292.6 495.6 292.8 494 292.7C485.8 292.2 477.3 292.8 468.6 294C494.1 282.3 515.8 270.7 535.5 258.3C536.2 257.9 537.4 257.2 538.9 256.3C558.3 244.9 577.9 232.1 576.2 223.6C575.9 222.3 575.1 221.3 573.9 220.7C572.3 220 568.7 218.4 550 225.4C578.1 212.7 618.6 196.3 629.3 202.4ZM572.6 223.5C573.1 223.7 573.2 223.9 573.2 224.2C574.2 229.3 562.1 239.2 537.3 253.8C535.7 254.7 534.5 255.4 533.8 255.9C513.2 268.8 490.4 280.9 463.3 293.2C464.6 291.7 465.2 290.3 465 289.1C464.4 286 460 284.5 450.6 284.3C448.7 284.3 446.8 284.2 444.9 284.2C442.8 284.2 440.7 284.2 438.6 284.3C463.3 270 560.4 218 572.6 223.5ZM504.1 216C508.6 218.2 510.8 220.9 510.9 224.2C511.2 233.4 495.5 247.3 464.3 265.3C464 265.4 463.8 265.6 463.6 265.7C468.3 260.8 470.4 256.5 469.8 252.7C469.2 249.2 466.5 246.5 461.4 244.5C463.1 243.2 465.1 241.7 467.1 240.1C478.3 231.6 489.5 223.1 500.8 214.5C501.9 215 503 215.5 504.1 216ZM578.9 137.4C582.1 135.1 585.7 132.4 589.4 129.5C601.1 120.4 614.3 110.2 626.6 107.2C621 117.7 607.3 127.8 596.2 136C592.3 138.8 588.7 141.5 585.7 144C557.8 166.9 529 189.3 500.3 211.3C499.7 211.1 499 210.9 498.4 210.7C503.2 204.3 506.7 197.7 507.4 191.4C532.2 171.4 555.9 153.6 578.9 137.4ZM497 175.1C502.1 179 504.5 183.6 504.5 189C504.5 189.2 504.5 189.5 504.5 189.7C497.2 195.5 489.7 201.6 482.2 207.7C481.6 207.7 481 207.6 480.5 207.6C487.6 198 492.7 187.7 491.9 178.1C491.7 175.5 491 173 490 170.7C492.5 172 494.9 173.4 497 175.1ZM485.3 168.6C487.4 171.6 488.6 174.8 488.9 178.3C489.7 187.6 484.2 197.9 476.8 207.4C461 207 443.4 209.5 428.2 211.7C421.9 212.6 416 213.5 410.9 214C363.3 219 320.5 225.2 279.9 233C275.9 233.8 271.5 234.5 266.8 235.3C243.5 239.3 215.1 244.2 197 257.7C188.8 249.3 183.9 241.1 182.6 233.4C181.5 226.6 183.2 220.1 187.7 214.1C203.7 192.6 240 185.5 266.5 180.2C268.6 179.8 270.6 179.4 272.6 179C306.1 172.3 341.9 167.7 379.2 165.3C369.1 167.5 361.6 176.5 361.6 187.3C361.6 199.7 371.7 209.8 384.1 209.8C396.5 209.8 406.6 199.7 406.6 187.3C406.6 175.6 397.7 166 386.3 164.9C392.2 164.6 398.2 164.3 404.2 164.1C407.7 164 411.5 163.8 415.6 163.5C423.9 163.1 433.3 162.6 442.7 162.6C457.7 162.7 473.1 163.9 485.3 168.6ZM145.2 195.2C157.6 171.3 197 164.2 223.1 159.6C224.9 159.3 226.7 159 228.4 158.6C270.1 151 315.6 147 367.6 146.4C371.4 146.4 375.3 146.3 379.3 146.2C410.8 145.6 450.1 144.8 476.1 160.6C477.9 161.7 479.6 162.9 481 164.1C461 158.2 435.5 159.6 415.4 160.7C411.3 160.9 407.5 161.1 404 161.2C357.4 162.9 313 168 271.9 176.2C269.9 176.6 267.9 177 265.8 177.4C238.8 182.7 201.8 190 185.2 212.4C180.2 219.1 178.3 226.4 179.6 234C181.1 242.8 186.7 251.3 193.9 258.9C182.6 251.5 168.2 242.4 153.4 233.6C143.9 221.9 138.2 208.5 145.2 195.2ZM81.6 204.6C89.7999 201.5 120.8 217.6 151.8 236.1C155.1 240 158.8 243.6 162.6 247C140.4 234 108.9 216.4 81.6 204.6C81.5 204.6 81.6 204.6 81.6 204.6ZM188 265.8C178.7 267.6 169.7 270.1 162.7 273.8C145.6 263.8 130.4 253.6 116.2 242.7C115.5 242.2 114.4 241.4 113.1 240.4C104.8 234.3 80.2 216.3 80 207.3C119.2 224.3 168.7 253.6 188 265.8ZM71.4 253.4C70.1 252.4 68.7 251.4 67.2 250.2C53 239.5 26.6 219.7 26.4 202.6C26.4 199.3 27.5 197.1 29.8 195.8C31.6 194.8 34 194.3 36.9 194.3C46.2 194.3 60.6 198.9 77.1 205.9C75.7 215.2 93.6 229.6 111.4 242.6C112.7 243.6 113.8 244.3 114.5 244.9C128.3 255.5 143.2 265.6 159.8 275.3C158.1 276.4 156.5 277.6 155.2 278.8C155.3 278.6 155.3 278.3 155.2 278C153.4 272.3 148 268.9 142.1 269.2C135.3 269.5 130.2 275 128.2 281.1C127.5 283.3 127.1 285.6 127.1 287.8C106.9 278 88.2 266.3 71.4 253.4ZM151.4 329.1C142.7 319.5 133.2 306.9 130.5 293.8C130.5 293.6 130.4 293.3 130.4 293.1C136.3 296 142.3 298.7 148.4 301.3C149.8 304.5 152.2 307.1 155.1 308.9C151.9 311.1 149.6 314.4 148.7 318.4C148.3 320.3 151.2 321.1 151.6 319.2C152.1 316.9 153.2 314.8 154.8 313.1C153.6 315.6 153.2 318.4 153.7 321.2C153.8 322 154.4 322.3 155 322.3C154.7 323.6 154.9 324.7 155.2 325.5C156.1 327.7 158.4 329.5 161.7 331C158.3 330.7 155 330.4 151.7 330.1C151.8 329.8 151.7 329.4 151.4 329.1ZM182 403.1C168.4 401.2 168.2 398.8 168.1 398.7C168 396.7 177.1 391.3 202.6 385L202 382C170 389.5 132.7 396 98 386.9C84.5 383.4 61.6 375.2 59.2 359.6C58.3 353.5 59.8 348.5 63.8 344.4C80.5 327.5 135.6 330.3 182.8 336.4C186.7 337 190.7 337.6 194.7 338.1C195.2 338.2 195.6 338.2 196 338.3C194.3 339.5 193.3 340.8 193.6 342.4C193.6 342.6 193.7 342.8 193.8 343C145.5 340.6 116.5 344 107.4 353C105 355.4 104 358.1 104.2 361.2C105.1 372.8 127.5 376 137.1 377.3L138.1 377.4C158.3 380.3 178.9 379.1 198.3 376.6C197.3 377.4 197.3 378.1 197.4 378.7C197.5 380.7 199.7 382 210.8 382.7C242.8 384.7 275.7 380.7 307.6 376.8L308.8 376.7C351 371.5 393 364 433.5 354.2C434.5 354 435.6 353.7 436.7 353.5C439.2 353.4 441.8 353.4 444.4 353.4C451.8 353.7 455.6 355 455.8 357.2C455.9 358 454.4 361.3 432.5 368.3C432.3 368.4 432.1 368.4 431.9 368.5C431.2 364.6 430.3 360.7 429.1 356.9C428.5 355.1 425.6 355.8 426.2 357.7C427.4 361.6 428.3 365.5 429 369.4C418.6 373 407.6 376.4 396.1 379.5C394.1 375.7 392.2 371.9 390.5 367.9C389.8 366.1 386.9 366.9 387.6 368.7C389.3 372.6 391.1 376.5 393.1 380.3C393 380.3 392.8 380.4 392.7 380.4C389.8 381.2 387 381.9 384 382.6C383.8 382.6 383.7 382.7 383.5 382.7C383.4 382.7 383.3 382.8 383.1 382.8C383.3 378.6 383.5 374.4 383.6 370.3C383.6 368.4 380.6 368.4 380.6 370.3C380.5 374.7 380.3 379.2 380 383.6C364.6 387.3 348.1 390.6 330.2 393.5C328.6 389.5 327.3 385.3 326.4 381C326 379.1 323.1 379.9 323.5 381.8C324.4 386 325.7 390 327.2 394C321.8 394.9 316.2 395.7 310.6 396.6C313 392 315.4 387.3 317.8 382.7C318.7 381 316.1 379.5 315.2 381.2C312.4 386.5 309.6 391.8 306.8 397.1C304.8 397.4 302.8 397.7 300.8 397.9C280.7 400.7 257.8 403.8 234.4 404.9C232.8 401 231.2 397 229.6 393.1C228.8 391.3 226.3 392.9 227 394.6C228.4 398 229.8 401.5 231.2 405C214.6 405.7 198 405.3 182 403.1ZM429.8 378.1C429.9 379.9 429.9 381.7 429.9 383.5C429.8 389.9 429.8 402.2 423.2 406.1C420.1 407.9 417 406.9 414 404.7C412.6 402.9 411.4 400.7 410.2 398.9C406.6 393.4 403.2 386.5 398.4 382C409.1 379.1 419.3 375.9 429.2 372.5C429.3 373.4 429.4 374.2 429.5 375.1C428.8 375 428.2 374.8 427.5 374.7L426.9 377.6C427.9 377.6 428.8 377.9 429.8 378.1ZM438 418.5C444.5 422.3 449.8 426.3 453.9 430.5C452.5 431.3 451.1 432.1 449.6 432.9C448 433.3 446.4 434 445.4 435.1C444.8 435.4 444.2 435.7 443.6 436C439.7 434.5 435.6 434.8 431.6 438.3C430.2 439.6 429.2 441.1 428.6 442.8C419.8 446.4 409.6 450.1 397.5 453.7C393.5 450.8 389 448.9 383.9 450C378.5 451.2 376.1 455.1 375 459.8C371.4 460.7 367.8 461.5 364 462.4C363.5 462.3 363 462.3 362.5 462.4C359.3 462.9 356.3 463.7 353.3 464.7C351.7 465 350.1 465.3 348.5 465.7C345.4 466.3 342.4 466.9 339.2 467.5C334.9 462.1 328.5 458.7 321.3 461.4C316.1 463.3 312 467.4 308.9 472.2C297.3 473.6 285.6 474.4 274.1 474.2C271.2 469.3 267.1 465.3 261.2 464.4C254.4 463.4 248.2 466.7 242.9 471.1C237.7 470.1 232.6 468.7 227.7 467.1C227.1 466.9 226.5 466.7 225.9 466.4L233.4 460.9C257.5 461.1 282 457.3 302.2 454.1C334.2 449.1 362.1 442.6 386.4 434.2C387.2 434.4 388 434.3 388.9 434C391 433.3 392.9 432.3 394.7 431.2C406.7 426.7 417.7 421.8 427.9 416.4C430.6 415 433 413.6 435.3 412.1C439.2 414.4 442.6 416.8 445.5 419.3C443.6 418.2 441.6 417 439.6 415.9C439.4 415.8 439.2 415.7 439 415.5L437.5 418.1C437.6 418.3 437.8 418.4 438 418.5ZM378.5 398.6C378.3 400.3 378.1 401.9 377.8 403.6C376.7 410.8 375 420.3 368.5 424.1C366.5 424.6 364.5 425.2 362.5 425.7C362.3 425.7 362 425.7 361.8 425.7C360.8 425.7 359.9 425.5 358.9 425.4C357 424.2 354.8 423.4 352.8 422.3C349.9 420.6 347.1 418.7 344.5 416.6C342 413.9 339.7 411 337.8 408.2C335.2 404.5 333.1 400.5 331.2 396.5C348.4 393.6 364.4 390.4 379.3 386.9C378.3 390.4 378.4 394.5 378.5 398.6ZM348.1 442C343 443.2 337.7 444.4 332.3 445.5C337.6 444.4 342.9 443.2 348.1 442ZM296.4 416.4C290.7 426.9 284 438.2 272 442.2C259.3 446.4 249.9 438.4 244.4 427.7C241.1 421.3 238.2 414.5 235.5 407.8C258.7 406.6 281.3 403.5 301.1 400.8C302.4 400.6 303.7 400.4 304.9 400.3C302.1 405.7 299.3 411.1 296.4 416.4ZM288.2 453.1H288.1C288.2 453.1 288.2 453.1 288.2 453.1ZM206.7 438.3L204.8 436.8C206.5 435.5 208.1 434.2 209.8 432.9C208.5 434.7 207.5 436.5 206.7 438.3ZM174.3 442.6C173.3 441.2 172.8 439.8 172.7 438.3C172.6 436.6 173.2 434.7 174.3 432.7V442.6ZM216.3 504.9C216.3 505.1 216.4 505.3 216.4 505.6C216.1 505.3 215.9 505 215.7 504.7C215.9 504.8 216.1 504.9 216.3 504.9ZM217.5 506.8C217.6 506.8 217.7 506.8 217.8 506.8C217.8 506.9 217.7 507 217.7 507C217.6 506.9 217.5 506.9 217.5 506.8ZM234.5 484C237 481 240.1 477.3 243.6 474.1C252.9 475.9 262.6 476.8 272.4 476.9C274.6 481.2 275.9 486.2 277 490.4C279.6 501.2 280.5 512.3 279.7 523.4C279.7 523.8 279.8 524.1 280 524.4C279.8 525.3 279.8 526.3 280.1 527.1C258.9 526.9 241.5 522.8 227.6 514.6C224.7 512.9 222.2 511.1 220 509.1C223.5 500.2 228.4 491.6 234.5 484ZM246.6 471.7C250.9 468.5 255.7 466.5 260.7 467.3C265 468 268.2 470.6 270.5 474C262.4 473.7 254.4 473 246.6 471.7ZM275.6 477.1C275.7 477.1 275.7 477.1 275.6 477.1C275.7 477.1 275.7 477.1 275.6 477.1C275.7 477.1 275.6 477.1 275.6 477.1ZM296.9 524.8C296.8 523.6 296.7 522.5 296.7 521.3C296.9 521.1 297 520.9 297 520.6C298.5 511.2 300 501.8 302.8 492.8C304.6 486.9 307 480.4 310.5 474.9C319.6 473.8 328.7 472.4 337.5 470.8C339.4 473.5 340.9 476.7 342 479.7C345.8 490.1 349.4 500.6 353.1 511C353.3 511.4 353.6 511.7 353.9 511.9C354.5 513 355.6 513.9 356.8 514.2C346.6 517.8 338 520.3 332.2 521.5C319.4 524.1 307.6 525.9 296.6 526.7C296.9 526 297 525.4 296.9 524.8ZM306.8 475.3C306.9 475.3 306.8 475.3 306.8 475.3V475.3ZM312.9 471.5C314.5 469.6 316.2 467.8 318.1 466.4C325.1 461.2 330.9 463.3 335.3 468.1C328 469.4 320.5 470.5 312.9 471.5ZM341 470.1C341.1 470.1 341.1 470.1 341 470.1C341.1 470.1 341.1 470.1 341 470.1C341.1 470.1 341.1 470.1 341 470.1ZM374.2 463.1C374.3 463.1 374.3 463.1 374.4 463.1C374.4 463.2 374.4 463.2 374.4 463.3C374.3 463.2 374.3 463.2 374.2 463.1ZM377.2 506.3C377.2 496.8 377.2 487.3 377.1 477.8C377.1 473.7 376.4 467.5 377.3 462.3C383.7 460.7 390.4 458.9 397.1 456.9C400.9 460 404.1 464.1 406.8 467.3C411.4 472.9 415.5 479 419 485.3C405.9 493.4 391.1 500.5 377.2 506.3ZM378.1 459C379.3 455.9 381.4 453.5 385.1 452.9C388.2 452.4 391.1 453.2 393.8 454.8C389 456.2 383.7 457.6 378.1 459ZM432.8 463.2C432.3 460.2 431.4 457.1 431 453.9C431.1 452.8 431.2 451.7 431.4 450.8C431.6 449.6 431.3 448.4 430.8 447.5C430.8 447.1 430.9 446.7 431 446.3C431.1 445.9 431.2 445.4 431.3 445C435.5 443.2 439.6 441.4 443.7 439.4C443.9 439.5 444.1 439.5 444.4 439.6C444.5 439.8 444.5 439.9 444.6 440.1C445.3 441.7 446.9 442.9 448.6 442.8C448.7 442.8 448.8 442.8 449 442.8C449.2 443.2 449.4 443.7 449.6 444.1C449.9 444.7 450.4 445.3 451.1 445.7C451.2 445.8 451.3 445.9 451.4 445.9C451.6 446.3 451.9 446.6 452.1 446.9C452.2 447 452.3 447.1 452.3 447.2C452.3 447.2 452.2 447.1 452.2 447C452.3 447.1 452.3 447.1 452.4 447.2C452.9 447.8 453.4 448.2 454 448.6H454.1C454.6 449.4 455.1 450.2 455.5 451C452 459.1 444.6 467 435.1 474.4C434.2 470.7 433.5 466.9 432.8 463.2ZM434.3 440.4C435.3 439.7 436.4 439.2 437.6 438.9C436.4 439.4 435.4 439.9 434.3 440.4ZM199.9 412.6C201.8 411.6 203.6 410.7 205.5 409.8L204.7 408.1C213.9 408.5 223.1 408.4 232.3 408C232.9 409.5 233.4 410.9 234 412.4C233.9 412.4 233.8 412.5 233.7 412.5C231.6 413.9 229.5 415.4 227.4 416.8L227 416.2C226.2 416.8 225.4 417.4 224.6 417.9C217.2 423.4 209.8 429 202.4 434.9L185.5 421.5C189.4 418.6 194.3 415.6 199.9 412.6ZM131.6 521C116.2 530.7 106.9 532.5 101.4 531.1C97.3 530.1 94.6 527.2 93.1 522.2C89.6 510.8 96.7 494.6 114.2 474.2C131.1 454.6 152.2 439.4 174.3 426.5V427.6C171.4 431.1 169.5 434.8 169.7 438.4C169.8 441.5 171.4 444.4 174.3 446.9V457.5H162.8V470.7C159.1 474.7 155.4 478.8 151.9 483.1C151.6 483.5 151.1 484.1 150.5 484.7C140 497.5 128.5 512.9 131.6 521ZM152.9 486.8C153.5 486.1 153.9 485.6 154.3 485.1C157.1 481.7 159.9 478.4 162.8 475.2V497.2C151.5 506.9 142.1 514.1 134.2 519.3C132.9 514.1 139.2 503.2 152.9 486.8ZM136.9 521.8C136.6 521.8 136.4 521.7 136.1 521.6C144 516.4 152.9 509.6 162.8 501.2V506.6C151.4 516.1 141.9 522.3 136.9 521.8ZM388.5 559.3C365.3 574.4 336.8 579.3 309.8 573.6C295.4 570.6 281.8 564.6 269.9 556.1C284.6 555.7 300.8 553.7 318.4 550.1C340 545.7 396.4 525.3 433.2 498.7C426.1 523.5 410 545.2 388.5 559.3ZM460.4 438.8C463.6 444.4 464.8 450.3 463.8 456.3C457 497.7 352.6 540 317.8 547.1C268 557.3 229.7 554.5 203.9 538.9C192 531.7 185.2 522.3 183.9 511.2C183.4 506.6 183.8 501.7 185.1 496.6L206.9 480.5C206.4 484.1 206.3 487.7 206.8 491C207.8 498.4 211.2 504.9 217 510.4C217.1 510.7 217.4 510.9 217.7 511.1C220.2 513.4 223 515.5 226.3 517.4C250.9 531.8 285.8 534.1 333 524.4C341.6 522.6 356 518.2 372.1 511.9C372.2 511.9 372.2 511.8 372.3 511.8C388.1 505.6 405.4 497.5 420.6 488.2C421 489 421.5 489.9 421.9 490.7C422.8 492.4 425.3 490.9 424.5 489.2C424.1 488.3 423.6 487.5 423.2 486.6C426.6 484.4 429.9 482.2 433 479.9C433.1 480.2 433.1 480.5 433.2 480.8C433.5 482.7 436.4 481.9 436.1 480C436 479.3 435.8 478.6 435.7 477.9C445.7 470.2 453.6 462 457.7 453.5C458.7 453.5 459.8 452.4 459.1 451.3C459 451.2 458.9 451 458.9 450.9C459.7 448.8 460.3 446.7 460.6 444.7C460.5 442.6 460.6 440.7 460.4 438.8ZM459.1 427.3C457.6 426.5 456.2 425.6 454.7 424.7C453.7 423.4 452.6 422.1 451.3 420.8C454.5 422.5 457.8 424.3 461 426.1C460.5 426.5 459.8 426.9 459.1 427.3ZM518.1 457.9C520 459 521.9 460.1 523.9 461.2C529 464 534.3 467 538.8 470.4C534.2 468.6 529.6 466.2 525.2 463.8C523.6 463 522.1 462.1 520.5 461.3C501 451.2 482.4 440.8 462 429C462.7 428.6 463.4 428.1 464 427.7C482.1 437.5 500.4 447.6 518.1 457.9ZM482.1 400.9C483.4 407.1 477.9 414.6 466.4 422.5C465.6 423.1 464.8 423.6 463.9 424.2C458.4 421.2 452.9 418.2 447.5 415.3C444.3 413.6 441.2 411.9 438 410.2C447.9 403.3 452.8 396.4 452 390.2C451.5 386.7 449.3 383.7 445.4 381.1C446.7 381.3 448 381.6 449.4 381.8L449.3 382.4C468.6 386.4 480.6 393.2 482.1 400.9ZM432.6 375.5C432.5 374.1 432.3 372.7 432.2 371.3C432.5 371.2 432.9 371.1 433.3 370.9C451.7 365 459.1 360.9 458.7 356.7C458.6 355.2 457.8 354 456.6 353C456.7 353 456.8 353 456.9 353C475.4 353 494.2 353.7 509.4 355.6C505.9 361.2 501.4 366.4 495.7 369.9C488.8 374.1 477.8 374.5 474.7 365.3C474.1 363.5 471.2 364.3 471.8 366.1C474.5 374.1 483.3 377.4 491.1 375.2C500.5 372.6 507.8 364.3 512.7 356.1C526.4 358 536.9 361.1 541.2 365.7C542.6 367.3 543.3 368.9 543.1 370.7C542.9 372.8 542.2 379.2 513.2 382.1L512 382.2C485.6 385.1 458.3 380.8 432.6 375.5ZM590.8 342.1C594 345.4 595.2 349.4 594.4 354.2C592.6 364.8 579.3 373.6 554.7 380.4C537.4 385.2 519.6 386.5 502.5 386C505.8 385.9 509 385.6 512.2 385.3L513.4 385.2C522.8 384.3 544.8 382.1 545.9 371.1C546.2 368.4 545.3 365.9 543.3 363.7C539 359 529.1 355.5 513.7 353.3C513.4 352.2 511.7 351.6 511 352.9C496.2 350.9 476.8 350 452.8 350.1C469 346.9 487.5 342.6 497.7 333.5L498.8 332.5C514.8 331 528.2 330.4 539.4 330.5C539.6 331.1 539.8 331.7 540 332.2C540.9 334.6 541.9 336.8 543.2 338.8C549.5 336.8 556.6 336 565.2 336.2C570.4 336.4 575.6 336.2 580.5 335.8C585.4 337.8 588.7 339.9 590.8 342.1ZM428.6 113.2C441 121 455.8 118.8 468.7 113.6C481.8 108.3 494.3 101 506.4 93.7001C530.4 79.3001 553 62.8001 574 44.2001C575.4 42.9001 577.6 45.0001 576.1 46.3001C575.1 47.2001 574.1 48.0001 573.1 48.9001C573.1 49.2001 572.9 49.5001 572.6 49.8001C556.7 64.3001 541.8 79.9001 528.2 96.6001C521 105.4 514.2 114.5 507.7 123.9C501.8 132.4 492 145.5 501 155.3C502.3 156.7 500.2 158.8 498.9 157.4C492.1 150 494.2 140 498.8 132C504.7 121.7 512.2 112.1 519.4 102.8C528.8 90.7001 538.8 79.1001 549.5 68.0001C534.7 79.2001 519.3 89.6001 503.2 98.9001C481.8 111.3 451.6 131.1 427 115.6C425.5 114.8 427 112.2 428.6 113.2ZM233.8 113.9C246.2 121.2 259.2 128.9 273.8 130.6C286.3 132.1 300.4 128.8 308.2 118.2C325.9 94.3001 306.1 65.2001 291.5 45.7001C290.5 44.3001 292.7 42.6001 293.9 43.9001C310.2 62.2001 326.6 80.5001 342.9 98.9001C355.8 113.4 375.4 138.9 397.7 126.6C399.4 125.7 400.9 128.3 399.2 129.2C378.9 140.4 360 122.6 347.4 108.4C333.8 93.2001 320.2 77.9001 306.7 62.7001C317.6 81.2001 324.6 103.1 309.7 121.2C301.5 131.3 287.9 134.8 275.3 133.8C259.6 132.5 245.6 124.3 232.3 116.5C230.7 115.5 232.2 113 233.8 113.9ZM133.2 65.4001C131.9 64.0001 134 61.9001 135.3 63.3001C159.2 89.4001 183.1 115.4 207.1 141.5C208.4 142.9 206.3 145 205 143.6C181 117.6 157.1 91.5001 133.2 65.4001ZM78.8 102.6C106.5 118.2 134.2 133.9 161.9 149.5C163.6 150.5 162.1 153 160.4 152.1C132.7 136.5 105 120.8 77.3 105.2C75.6 104.3 77.1 101.7 78.8 102.6ZM126.1 178.1C84.3999 168.4 42.8 158.8 1.09996 149.1C-0.800044 148.7 -4.43459e-05 145.8 1.89996 146.2C43.6 155.9 85.2 165.5 126.9 175.2C128.8 175.6 128 178.5 126.1 178.1ZM357.8 346.4C358.1 348.3 355.2 349.1 354.9 347.2C354 341.7 350.5 336 344 338.1C340.1 339.4 338 344 336.4 347.4C334.4 351.6 332.9 355.9 331.8 360.4C331.4 362.3 328.5 361.5 328.9 359.6C330.9 351.4 335 335.9 345.2 334.8C352.7 334 356.8 339.7 357.8 346.4ZM498.1 312.7C499.9 312.6 501.6 312.3 503.3 311.6C503.5 311.1 503.9 310.7 504.6 310.8C504.7 310.8 504.8 310.8 504.9 310.9C509.2 308.7 512.5 304.6 513.6 299.7C514 297.8 516.9 298.6 516.5 300.5C515.7 304.2 513.8 307.4 511.3 309.9C514.3 308.9 516.8 306.7 518.2 303.6C519 301.8 521.6 303.4 520.8 305.1C519.3 308.3 516.7 310.8 513.6 312.2C517.3 311.7 520.7 310.4 523.9 308.2C525.5 307.1 527 309.7 525.4 310.8C521.3 313.7 516.7 315.2 511.8 315.4C513.4 317.8 513.9 320.8 512.9 323.7C512.3 325.5 509.4 324.7 510 322.9C511.3 319.3 509.1 314.9 505.4 314C503.2 315 500.7 315.6 498.2 315.7C496.2 315.8 496.2 312.8 498.1 312.7Z" fill="#262626"/>
</g>
<defs>
<clipPath id="clip0">
<rect width="634.6" height="603" fill="white"/>
</clipPath>
</defs>
</svg>
