<?xml version="1.0" encoding="utf-8"?>
<!-- Generator: Adobe Illustrator 23.0.1, SVG Export Plug-In . SVG Version: 6.00 Build 0)  -->
<svg version="1.1" id="Layer_1" xmlns="http://www.w3.org/2000/svg" xmlns:xlink="http://www.w3.org/1999/xlink" x="0px" y="0px"
	 viewBox="0 0 251 252" style="enable-background:new 0 0 251 252;" xml:space="preserve">
<style type="text/css">
	.st0{fill:#4A8CFF;}
	.st1{fill:#FFFFFF;}
</style>
<path class="st0" d="M250.5,126c0,69.1-56,125-125,125s-125-56-125-125s56-125,125-125S250.5,56.9,250.5,126z"/>
<g>
	<path class="st1" d="M0.4,149.3l0.1,8.5l31.4-0.2c-2.1,4.1-4.1,8.3-5.9,12.6c-7,16.3,18.6,26.4,25.6,10.2
		c3.8-8.9,8.5-17.5,12.7-26.3l186.8-2.7l-0.1-5.6l-12.7,0.1c0.8-4.3,1.4-8.6,1.7-13.1c3.3-54.6-38.4-101.6-93.1-104.8
		c-38.1-2.3-72.3,17.3-90.7,47.9c0.6-0.1,1.2-0.1,1.8,0.1c15.7,0.9,27.7,14.4,26.7,30.2c-0.8,12.6-9.8,16.6-21.3,17.2
		c2.3-3.8,1-10-4.8-10.7c-6.3-0.7-8.8,6-6.6,10.4c-0.1,0-0.1,0-0.1,0.1c-3.6-0.5-7.1-1.7-10.1-3.5c0.1,3.6,0.5,9.5,1,15.4
		c-1.9,4.8-4.1,9.4-6.4,14.1L0.4,149.3z"/>
	<path class="st0" d="M123.5,122.2c-2.9-4.2-0.4-11.8,6.2-11c6.2,0.7,7.3,7.5,4.4,11.2c3,0.1,6,0.1,8.9-0.2
		c8.5-0.7,15.7-3.6,16.3-13.9c0.9-15.7-11.1-29.3-26.8-30.2c-15.7-0.9-29.3,11.1-30.2,26.8C101.6,118.8,110.6,121.6,123.5,122.2z"/>
</g>
<rect x="93.8" y="169.9" transform="matrix(0.9039 0.4278 -0.4278 0.9039 96.2025 -22.4478)" class="st1" width="8.6" height="66"/>
<rect x="134.5" y="169.9" class="st1" width="8.6" height="66"/>
<rect x="179.8" y="155.6" transform="matrix(0.7604 -0.6495 0.6495 0.7604 -78.3679 164.7743)" class="st1" width="8.6" height="66"/>
</svg>
