<svg width="100%" height="" viewBox="0 0 251 252" fill="none" xmlns="http://www.w3.org/2000/svg">
<path d="M120.556 177.578L172.202 241.955C157.718 247.793 141.934 251.03 125.394 251.03C121.705 251.03 118.047 250.849 114.448 250.516L120.012 199.662L34.017 211.43C28.3021 205.319 23.1618 198.664 18.7471 191.524L120.556 177.578ZM121.554 73.5096C120.072 71.3617 121.342 67.4894 124.729 67.8827C127.874 68.2155 128.448 71.6945 126.997 73.6306C128.509 73.6609 130.081 73.6609 131.563 73.5399C135.887 73.1769 139.606 71.6945 139.908 66.4306C140.392 58.3835 134.254 51.4557 126.211 51.0019C118.167 50.5179 111.243 56.6591 110.79 64.7062C110.366 71.755 114.993 73.1769 121.554 73.5096ZM36.4057 213.941C42.2718 219.84 48.7123 225.165 55.6367 229.823L92.0122 221.958L89.4118 245.736C96.5478 247.884 103.986 249.397 111.606 250.244L116.777 202.929L36.4057 213.941ZM86.6904 244.889L88.807 225.528L59.0233 231.971C67.6107 237.356 76.8633 241.713 86.6904 244.889ZM124.245 149.352L20.1078 163.601L20.5009 166.384L123.61 152.287L216.197 212.005C204.616 224.197 190.616 234.059 174.953 240.805L121.796 174.552L17.3865 188.832L17.4469 189.316C6.34984 170.65 0 148.868 0 125.574C0 86.1551 18.1726 51.0019 46.5957 28.0101L58.2371 42.501L60.4444 40.7464L48.8333 26.2555C52.8246 23.1697 56.9974 20.2958 61.3515 17.7243L83.455 45.2842L85.6623 43.5296L63.831 16.3327C82.0339 6.04691 103.019 0.147705 125.394 0.147705C164.733 0.147705 199.808 18.2991 222.819 46.6456L209.756 57.1431L211.51 59.3516L224.542 48.8842C240.961 70.0911 250.758 96.7132 250.758 125.604C250.758 158.095 238.421 187.712 218.162 209.978L124.245 149.352ZM225.268 160.576L146.077 131.292L145.109 133.924L224.3 163.208L225.268 160.576ZM230.439 110.024L199.748 106.666L199.445 109.48L230.136 112.838L230.439 110.024ZM183.994 55.2977L186.806 55.6002L189.558 30.3698L186.746 30.0673L183.994 55.2977ZM31.2049 65.4928L56.4228 68.2457L56.7252 65.4323L31.5073 62.6793L31.2049 65.4928ZM28.5743 88.303L28.6045 92.6291L74.7164 91.5703C73.6581 93.6879 72.5998 95.8359 71.6927 98.014C68.0944 106.364 81.2174 111.537 84.7855 103.217C86.7206 98.6493 89.1396 94.2627 91.2562 89.7551L233.13 87.6072L233.1 84.7635L180.245 85.5803C180.668 83.4022 180.94 81.1635 181.091 78.8946C182.754 50.9717 161.437 26.9513 133.498 25.3177C114.025 24.1378 96.5175 34.1816 87.1137 49.7918C87.4161 49.7615 87.7185 49.7616 88.0208 49.8221C96.064 50.2758 102.172 57.1734 101.688 65.2508C101.295 71.6945 96.699 73.7516 90.7724 74.0542C91.9517 72.0878 91.2865 68.9415 88.293 68.6088C85.0878 68.2457 83.7876 71.6945 84.9064 73.9029C84.8762 73.9029 84.8762 73.9029 84.8459 73.9332C83.0014 73.6609 81.2174 73.0559 79.6753 72.1483C79.7358 73.9937 79.9172 76.9887 80.1894 80.0139C79.2218 82.4643 78.103 84.824 76.9237 87.214L28.5743 88.303ZM25.6412 113.17L26.0343 115.954L65.1312 110.599L64.7381 107.816L25.6412 113.17ZM91.3167 131.866L90.9236 129.083L22.8292 138.401L23.2223 141.184L91.3167 131.866Z" fill="#4A8CFF"/>
</svg>
