<?xml version="1.0" encoding="utf-8"?>
<!-- Generator: Adobe Illustrator 23.0.1, SVG Export Plug-In . SVG Version: 6.00 Build 0)  -->
<svg version="1.1" id="Layer_1" xmlns="http://www.w3.org/2000/svg" xmlns:xlink="http://www.w3.org/1999/xlink" x="0px" y="0px"
	 viewBox="0 0 317 44" style="enable-background:new 0 0 317 44;" xml:space="preserve">
<style type="text/css">
	.st0{fill:#F0EADC;}
</style>
<g>
	<path class="st0" d="M18.87,35.67V33.7c-1.68,1.63-4.08,2.59-7.1,2.59c-7.2,0-11.57-5.04-11.57-13.35S4.57,9.6,11.96,9.6
		c2.69,0,5.33,0.96,6.91,2.54V1.54h5.76v34.13H18.87z M23.53,2.59h-3.55v12.29c-1.34-1.58-3.36-4.22-8.21-4.22
		C5.24,10.66,1.3,15.5,1.3,22.95c0,7.73,3.89,12.29,10.46,12.29c3.74,0,6.1-1.44,8.21-4.56v3.94h3.55V2.59z M12.49,32.5
		c-5.14,0-7.54-3.5-7.54-9.55c0-6.19,2.59-9.55,7.54-9.55c4.8,0,7.58,3.5,7.58,9.55C20.07,29.14,17.29,32.5,12.49,32.5z
		 M12.49,14.45c-4.13,0-6.43,3.02-6.43,8.5c0,5.66,2.16,8.5,6.43,8.5c3.98,0,6.48-3.02,6.48-8.5
		C18.97,17.28,16.47,14.45,12.49,14.45z"/>
	<path class="st0" d="M40.95,36.29c-7.87,0.05-12.63-5.04-12.63-13.35C28.28,14.83,32.74,9.6,40.76,9.6
		c7.87-0.05,11.81,5.23,11.76,15.12H34.19c0.38,4.32,2.78,6.67,6.77,6.67c3.26,0,4.9-1.1,5.71-4.37h5.81
		C51.18,33.07,47.72,36.29,40.95,36.29z M47.48,28.08c-1.06,2.98-2.93,4.37-6.53,4.37c-5.14,0-8.02-3.6-7.97-8.78h18.39
		c-0.34-8.69-3.89-13.01-10.61-13.01c-7.2,0-11.33,4.46-11.33,12.29c0,7.58,4.42,12.34,11.52,12.29c5.38,0,8.74-2.26,10.13-7.15
		H47.48z M47.87,21.03H33.08c0.34-4.61,2.88-7.58,7.68-7.58C45.23,13.44,47.82,16.32,47.87,21.03z M34.33,19.97h12.29
		c-0.48-3.74-2.35-5.47-5.86-5.47C37.06,14.5,35.05,16.32,34.33,19.97z"/>
	<path class="st0" d="M68.75,20.64c5.62,1.1,7.92,3.36,7.92,7.82c0,4.94-3.7,7.82-10.42,7.82c-7.63,0.05-11.04-2.78-11.47-9.41h5.76
		c0.19,3.17,1.92,4.56,5.71,4.56c3.07,0,4.75-0.67,4.75-2.74c0-1.78-1.01-2.64-3.79-3.22l-3.22-0.58c-5.09-1.06-7.78-3.7-7.78-7.82
		c0-4.7,3.07-7.49,9.79-7.49c6.72-0.05,10.18,3.12,10.27,8.54h-5.71c0.05-2.69-1.34-3.79-4.8-3.79c-2.3,0-3.98,0.86-3.94,2.5
		c0,1.68,1.01,2.59,3.7,3.12L68.75,20.64z M60.73,16.85c0.05-2.3,1.82-3.55,5.14-3.55c3.7,0,5.42,1.1,5.76,3.79h3.5
		c-0.53-4.13-3.5-6.43-9.12-6.43c-5.66-0.05-8.74,2.06-8.69,6.43c-0.05,3.55,2.3,5.81,6.86,6.77l3.22,0.58
		c3.17,0.62,4.7,1.73,4.7,4.27c0,2.54-2.06,3.79-5.86,3.79c-4.27,0-6.19-1.3-6.72-4.56h-3.46c0.67,4.94,3.74,7.34,10.18,7.3
		c5.52,0,9.31-2.16,9.31-6.77c0-3.89-1.92-5.71-7.01-6.82l-3.22-0.62C62.22,20.4,60.73,19.06,60.73,16.85z"/>
	<path class="st0" d="M80.26,0.34h6.14v6.14h-6.14V0.34z M80.5,10.18h5.71v25.44H80.5V10.18z M85.3,5.42V1.39h-3.94v4.03H85.3z
		 M85.11,34.61V11.28h-3.5v23.33H85.11z"/>
	<path class="st0" d="M113.48,10.22v33.65H92.02v-5.14h15.75v-5.47c-1.58,1.3-3.55,2.02-6.43,2.02c-7.01,0.05-11.47-4.9-11.47-12.86
		c0-7.63,4.37-12.82,11.19-12.82c2.59-0.05,5.18,0.77,6.72,2.45v-1.82H113.48z M112.38,11.28h-3.5v4.94
		c-1.3-3.74-3.98-5.57-7.82-5.57c-5.95-0.05-10.08,4.46-10.08,11.76c0,7.1,4.03,11.81,10.42,11.81c3.02,0,5.57-1.2,7.49-3.84v9.41
		H93.13v3.02h19.25V11.28z M108.92,22.42c0,5.71-2.5,9.07-7.15,9.07c-4.61,0-7.2-3.31-7.15-9.07c0-5.66,2.5-9.02,7.15-9.02
		S108.92,16.56,108.92,22.42z M107.82,22.42c0-5.09-2.21-7.97-6.05-7.97s-6.05,2.69-6.05,7.97c0,5.09,2.21,8.02,6.05,8.02
		S107.82,27.7,107.82,22.42z"/>
	<path class="st0" d="M118.33,10.22h5.47l-0.05,2.45c1.73-1.87,3.89-3.12,7.39-3.12c6,0,8.74,2.83,8.78,8.98v17.14h-5.71V18.53
		c0-2.83-1.2-4.03-4.03-4.03c-3.94,0-6.14,2.45-6.14,6.77v14.4h-5.71V10.22z M122.94,34.61V21.27c0-4.99,2.83-7.82,7.25-7.82
		c3.65,0,5.14,1.44,5.14,5.09v16.08h3.5V18.53c0-5.28-2.59-7.97-7.73-7.92c-4.7,0-6.67,2.74-8.4,5.14v-4.46h-3.26v23.33H122.94z"/>
	<path class="st0" d="M142.57,10.22h6.14l4.32,19.06l3.7-19.06h7.73l3.79,19.11l4.46-19.11h5.86l-6.62,25.44h-7.73l-3.65-18.87
		l-3.6,18.87h-7.73L142.57,10.22z M156.06,34.61l3.89-20.64h1.2l3.98,20.64h5.95l6.05-23.33h-3.55l-4.8,20.64h-1.15l-4.08-20.64
		h-5.9l-3.98,20.64h-1.15l-4.66-20.64h-3.84l6.1,23.33H156.06z"/>
	<path class="st0" d="M204.83,22.95c0,8.16-4.61,13.35-12.43,13.35c-7.82,0-12.43-4.94-12.38-13.35c0-8.16,4.56-13.35,12.38-13.35
		C200.22,9.6,204.83,14.54,204.83,22.95z M181.11,22.95c0,7.54,4.37,12.29,11.28,12.29c6.91,0,11.28-4.42,11.33-12.29
		c0-7.54-4.42-12.29-11.33-12.29C185.48,10.66,181.11,15.07,181.11,22.95z M184.76,22.95c0-6,2.64-9.5,7.63-9.5s7.68,3.31,7.68,9.5
		c0,6-2.69,9.5-7.68,9.5S184.71,29.14,184.76,22.95z M198.97,22.95c0-5.42-2.4-8.45-6.58-8.45c-4.18,0-6.53,2.83-6.53,8.45
		c0,5.42,2.35,8.45,6.53,8.45C196.57,31.39,198.92,28.56,198.97,22.95z"/>
	<path class="st0" d="M208.42,10.22h14.5v4.8h-8.79v20.64h-5.71V10.22z M213.03,34.61V13.97h8.78v-2.69h-12.29v23.33H213.03z"/>
	<path class="st0" d="M226.13,1.54h5.71v17.38l9.36-8.69h7.49l-9.26,8.74l8.88,16.71h-6.24l-7.01-13.15l-3.22,2.93v10.23h-5.71V1.54
		z M230.74,34.61v-9.6l4.61-4.22l7.39,13.83h3.74l-8.4-15.84l7.92-7.49h-4.37l-10.9,10.13V2.59h-3.5v32.02H230.74z"/>
	<path class="st0" d="M273.75,22.95c0,8.16-4.61,13.35-12.43,13.35c-7.82,0-12.43-4.94-12.38-13.35c0-8.16,4.56-13.35,12.38-13.35
		C269.14,9.6,273.75,14.54,273.75,22.95z M250.04,22.95c0,7.54,4.37,12.29,11.28,12.29c6.91,0,11.28-4.42,11.33-12.29
		c0-7.54-4.42-12.29-11.33-12.29C254.41,10.66,250.04,15.07,250.04,22.95z M253.69,22.95c0-6,2.64-9.5,7.63-9.5s7.68,3.31,7.68,9.5
		c0,6-2.69,9.5-7.68,9.5S253.64,29.14,253.69,22.95z M267.9,22.95c0-5.42-2.4-8.45-6.58-8.45c-4.18,0-6.53,2.83-6.53,8.45
		c0,5.42,2.35,8.45,6.53,8.45C265.5,31.39,267.85,28.56,267.9,22.95z"/>
	<path class="st0" d="M277.35,10.22h5.71v15.84c0,3.55,1.78,5.33,5.04,5.33c3.26,0,5.14-1.78,5.14-5.33V10.22h5.71v15.99
		c0,6.53-3.94,10.08-10.85,10.08c-6.91,0-10.8-3.55-10.75-10.08V10.22z M288.1,35.23c6,0,9.7-3.41,9.75-9.02V11.28h-3.5v14.79
		c0,4.32-2.16,6.38-6.24,6.38s-6.19-2.06-6.14-6.38V11.28h-3.5v14.93C278.45,31.83,282.1,35.23,288.1,35.23z"/>
	<path class="st0" d="M302.31,10.22h3.98V1.54H312v8.69h4.94v4.8H312v15.7h5.28v4.94h-10.99V15.02h-3.98V10.22z M307.4,11.33h-4.03
		v2.69h4.03v20.59h8.78v-2.83h-5.28V14.02h4.99v-2.69h-4.99V2.64h-3.5V11.33z"/>
</g>
</svg>
