<svg xmlns="http://www.w3.org/2000/svg" viewBox="0 0 256 256" fill="#f7f7f7" style="box-shadow: none; border-radius: 0px; opacity: 1;" preserveAspectRatio="xMidYMid meet" fill-opacity="1">
<path d="M33.2 135.5V167L73.9 135.5C73.8 135.5 73.7 135.5 73.6 135.5H33.2Z" fill="" style="undefined" fill-opacity=""></path>
<path d="M218.5 37.5C168.5 -12.5 87.5 -12.5 37.5 37.5C-12.5 87.5 -12.5 168.5 37.5 218.5C87.5 268.5 168.5 268.5 218.5 218.5C268.5 168.5 268.5 87.5 218.5 37.5ZM185.7 133.9C184.4 135.3 182.4 135.8 180.6 135.2C178.8 134.5 177.6 132.8 177.6 130.9V97.7L153.1 133.5C152 135.2 149.9 135.9 148 135.3C146.1 134.7 144.8 132.9 144.8 130.9V92.2L91.7 133.3C97.2 138.3 100.7 145.5 100.7 153.5C100.7 168.5 88.5 180.7 73.5 180.7H58.2V171.5H73.6C83.5 171.5 91.6 163.4 91.6 153.5C91.6 147.6 88.7 142.3 84.3 139.1L31.4 180.1C30.6 180.7 29.6 181.1 28.6 181.1C27.9 181.1 27.2 180.9 26.6 180.6C25 179.8 24 178.2 24 176.5V131C24 128.5 26.1 126.4 28.6 126.4H73.6C77 126.4 80.3 127 83.4 128.2L146.6 79.2C148 78.1 149.9 77.9 151.4 78.7C153 79.5 154 81.1 154 82.8V116.1L178.5 80.3C179.6 78.6 181.7 77.9 183.6 78.5C185.5 79.1 186.8 80.9 186.8 82.9V118.7L225.1 75L232 81L185.7 133.9Z" fill="" style="undefined" fill-opacity=""></path>
</svg>