<svg xmlns="http://www.w3.org/2000/svg" viewBox="0 0 172.89 172.93"><defs><style>.cls-1{fill:#262626;}</style></defs><title>DW KIOSK graphic 51</title><g id="Layer_2" data-name="Layer 2"><g id="Layer_1-2" data-name="Layer 1"><path class="cls-1" d="M150.79,27.86c-2.14-2.41-5.67,1.14-3.53,3.53,22.18,24.9,27.34,63.54,11.65,93.14-15.3,28.89-49,46.4-81.41,43-32-3.35-60.41-28.13-69.44-58.83C-1.22,77.15,11.44,41.3,37.22,21.23,67.08-2,112.09.26,140.5,24.75c2.43,2.09,6-1.43,3.54-3.54C117.21-1.91,76.64-6.87,45.3,10,14.61,26.53-3.75,63,.65,97.52,5,131.47,31.37,161,64.22,170.06c33.77,9.35,71.62-4.86,92.44-32.67C180.82,105.12,177.31,57.62,150.79,27.86Z"/><path class="cls-1" d="M128,90.15a99.22,99.22,0,0,0,2.61-16,2.65,2.65,0,0,0-.77-4.11,1.89,1.89,0,0,0-1.1-.63L113.53,67.1c-3.14-.48-4.5,4.34-1.32,4.83l10.22,1.57Q105.29,84.33,87.41,94a2.39,2.39,0,0,0-.89-.8,2.42,2.42,0,0,0-.66-.89A8.38,8.38,0,0,0,83.2,90.7l5.13-63.79c.26-3.21-4.74-3.19-5,0q-2.55,31.8-5.11,63.62a7.66,7.66,0,0,0-3.84,2.55A8.26,8.26,0,0,0,85.75,105a8.32,8.32,0,0,0,3-6.1,3.89,3.89,0,0,0,.49-.2q18.39-9.86,36-21a92.79,92.79,0,0,1-2.07,11.16C122.36,92,127.18,93.28,128,90.15ZM78.45,101c-2.93-2.42.82-7.82,3.88-5.15a2.72,2.72,0,0,0,.67.43,2,2,0,0,0,.18.36C85.12,99.71,81.48,103.46,78.45,101Z"/></g></g></svg>