<svg width="211" height="211" viewBox="0 0 211 211" xmlns="http://www.w3.org/2000/svg">
<path d="M105.5 0C47.2351 0 0 47.2351 0 105.5C0 163.765 47.2351 211 105.5 211C163.765 211 211 163.765 211 105.5C211 47.2351 163.765 0 105.5 0ZM176.825 45.2325C180.798 49.2695 183.694 55.3136 185.442 63.196L186.76 69.1625C188.137 75.3845 192.489 75.1792 192.535 75.1792L192.781 79.0474C192.662 79.0566 192.544 79.0611 192.416 79.0611C189.647 79.0611 184.57 77.2137 182.974 70.0019L181.655 64.0353C178.065 47.8144 169.814 41.0131 157.119 43.823L156.279 40.0369C164.686 38.1758 171.602 39.9274 176.825 45.2325ZM151.102 62.1058L177.203 81.0272H157.055L192.544 102.001L190.573 105.34L142.878 77.1498H165.252L148.83 65.2441L151.102 62.1058ZM125.024 97.686V85.7803H128.901V93.8087H139.05V105.6L157.839 116.598L155.883 119.946L135.178 107.822V97.686H125.024ZM110.878 24.8241H143.548V28.7014H119.718L127.514 32.5331V60.1489L132.92 49.2239L136.396 50.9436L127.678 68.565H123.637V34.9462L110.878 28.6786V24.8241ZM109.359 73.5873C106.814 78.4271 101.258 80.5254 95.1954 78.938C94.6115 78.7874 94.1098 78.6506 93.6399 78.5229C92.3079 78.1671 91.2588 77.8843 89.4387 77.4828C84.7266 76.4519 80.1787 78.3997 78.1123 82.3272C76.493 85.4108 76.6298 89.165 78.4727 92.1255L75.1792 94.1736C72.6156 90.05 72.424 84.8178 74.682 80.5208C77.5695 75.0287 83.828 72.2826 90.2689 73.6922C92.1802 74.1118 93.2704 74.4038 94.648 74.7733C95.1087 74.8964 95.606 75.0287 96.1807 75.1792C100.496 76.3105 104.232 75.0059 105.929 71.7763C107.945 67.9355 105.673 62.7535 100.865 60.2264L102.672 56.7961C109.373 60.3222 112.374 67.8534 109.359 73.5873ZM110.066 105.5C110.066 108.023 108.023 110.066 105.5 110.066C102.977 110.066 100.934 108.023 100.934 105.5C100.934 102.977 102.977 100.934 105.5 100.934C108.023 100.934 110.066 102.977 110.066 105.5ZM65.7231 104.296C67.0825 121.803 81.1686 122.61 83.0936 122.638H83.3262L83.3673 126.515C83.3627 126.515 83.349 126.515 83.3262 126.515H75.0013L68.9436 139.735L65.4175 138.12L72.2097 123.299C67.3881 120.416 62.6623 114.952 61.8595 104.597L65.7231 104.296ZM55.1038 73.3592L54.5929 69.5138C63.1185 68.3779 67.7256 65.8736 70.084 63.976C72.5563 61.9917 73.1083 60.2538 73.1174 60.2355L76.8533 61.2664C76.7484 61.6587 74.1073 70.8229 55.1038 73.3592ZM63.5016 154.66H81.6932V145.934H85.5705V158.537H63.5016V154.66ZM104.556 8.11047L106.426 11.5043L69.532 31.8352L67.6618 28.4414L104.556 8.11047ZM48.1793 31.8808H52.0566V42.1991H90.5791V46.0764H48.1793V31.8808ZM25.7729 56.0754H41.0678V59.9527H29.6502V72.164H25.7729V56.0754ZM8.18802 96.9699H49.119L40.7804 82.1858L44.156 80.2791L55.7515 100.843H8.18802V96.9699ZM40.6938 166.411H36.8164V126.26L19.6741 134.63V114.783H23.5514V128.422L40.6938 120.051V166.411ZM83.5862 194.574C76.1417 194.574 70.0885 188.516 70.0885 181.076C70.0885 175.771 65.7733 171.456 60.4682 171.456C55.1631 171.456 50.8478 175.771 50.8478 181.076H46.9705C46.9705 173.632 53.0283 167.578 60.4682 167.578C67.9081 167.578 73.9659 173.636 73.9659 181.076C73.9659 186.381 78.2811 190.696 83.5862 190.696C88.8913 190.696 93.2066 186.381 93.2066 181.076H97.0839C97.0885 188.521 91.0307 194.574 83.5862 194.574ZM140.62 165.247C137.294 165.247 134.585 167.952 134.585 171.282V185.341C134.585 191.723 129.503 196.937 123.172 197.151V197.16L122.766 197.151C116.434 196.937 111.352 191.718 111.352 185.341V171.282C111.352 167.957 108.647 165.247 105.318 165.247V161.37C110.782 161.37 115.23 165.818 115.23 171.282V185.341C115.23 189.652 118.683 193.173 122.966 193.278C127.25 193.169 130.703 189.652 130.703 185.341V171.282C130.703 165.818 135.15 161.37 140.615 161.37V165.247H140.62ZM150.007 143.876H136.482L127.263 134.27L97.8001 141.956L96.8193 138.206L128.481 129.945L138.133 140.004H146.13V132.103H150.007V143.876ZM158.975 175.178L155.144 174.58C155.221 174.083 157.178 162.337 169.905 158.857L170.927 162.597C160.677 165.398 159.039 174.781 158.975 175.178ZM193.36 139.999V143.876H163.062L172.719 129.394V119.668H193.36V123.546H176.597V130.566L170.306 139.999H193.36Z"/>
</svg>
