<svg xmlns="http://www.w3.org/2000/svg" viewBox="0 0 489.13 735.53"><defs><style>.cls-1{fill:#262626;}</style></defs><title>manifesto_5</title><g id="Layer_2" data-name="Layer 2"><g id="Layer_1-2" data-name="Layer 1"><path class="cls-1" d="M59.61,453.23V223.41c0-3.22-5-3.22-5,0V453.23C54.61,456.45,59.61,456.45,59.61,453.23Z"/><path class="cls-1" d="M451.55,467.14c3.21,0,3.22-5,0-5H342.71V401.92a2.28,2.28,0,0,0-.67-1.69l-.08-.08,0,0a2.31,2.31,0,0,0-1.71-.68h-43.8V340.81c0-3.22-5-3.23-5,0v59.26a18.21,18.21,0,0,0,4.35,4.35h41.95v57.72H182.51V404.42h56.77c2.55,0,3.07-3.14,1.57-4.44V344.51c0-3.22-5-3.22-5,0v54.91H180.94a2.34,2.34,0,0,0-2.4,2.37,2.28,2.28,0,0,0-1,2v58.37H63.63c-3.22,0-3.23,5,0,5H451.55Z"/><path class="cls-1" d="M458.94,453.23V225c0-3.22-5-3.22-5,0V453.23C453.94,456.45,458.94,456.45,458.94,453.23Z"/><path class="cls-1" d="M146.54,151.08c7.08,3.1,14.52,3,21.91,1,7.79-2,15.12-5.65,23.07-7.08a23.73,23.73,0,0,1,10.7.36,25.6,25.6,0,0,1,9.36,5.42c6,5.16,10.81,11.45,17.36,16a51.66,51.66,0,0,0,74.39-16.63,2.19,2.19,0,0,0,1.59,1.41c16,2.68,32.34-2.54,44.7-12.86,12.21-10.2,19.62-25.38,19.06-41.38a58,58,0,0,0-19.53-41,50.84,50.84,0,0,0-20.53-11,54.11,54.11,0,0,0-23.18-.65,57,57,0,0,0-10.75,3.07,30.53,30.53,0,0,0-9.92-18.56,29.32,29.32,0,0,0-21.95-7.27,30.94,30.94,0,0,0-21,10.93c-5,5.89-8.35,12.95-13.09,19a34.68,34.68,0,0,1-18,12c-7.41,2.18-15.16,2.75-22.82,3.41s-15.66,1.39-23.17,3.7a64.55,64.55,0,0,0-20.32,10.34c-11.53,8.83-20.24,22.53-19.08,37.52C126.3,132,134.07,145.62,146.54,151.08Zm-15.75-41.25A39.73,39.73,0,0,1,140,92c9.6-10.86,23.36-16.83,37.52-18.74,14.65-2,30.65-1.06,43.92-8.58C228.22,60.88,232.9,55,237,48.52c3.84-6,7.44-12.77,13.35-17a25.69,25.69,0,0,1,20.74-4.09,25,25,0,0,1,16,12.72,24.41,24.41,0,0,1,2.78,9.51l0,.17a55.28,55.28,0,0,0-22,19.61,49.15,49.15,0,0,0-2.69,4.88,2.57,2.57,0,0,0,.9,3.42,2.52,2.52,0,0,0,3.42-.9c6.15-12.83,18.09-22.13,31.65-26.07,13.72-4,28.54-2.27,40.39,5.91s19.54,21.42,21.65,35.42a46.27,46.27,0,0,1-12.82,39.07c-10,10.39-24.41,16.73-38.95,16.12a45.35,45.35,0,0,1-5.2-.53,3,3,0,0,0-1.07,0c.67-1.35,1.3-2.72,1.86-4.12a48.56,48.56,0,0,0,2.87-10.51,2.58,2.58,0,0,0-1.75-3.07,2.51,2.51,0,0,0-3.07,1.74,48.42,48.42,0,0,1-23.12,34c-12.69,7.46-28.67,8-42.16,2.3a47.65,47.65,0,0,1-9.74-5.61,70.52,70.52,0,0,1-8.17-7.57c-5.21-5.35-10.65-10.93-18-13.2-15.66-4.83-29.64,7.44-44.94,7.89-12.38.37-22.55-9.17-26.63-20.51A33.44,33.44,0,0,1,130.79,109.83Z"/><path class="cls-1" d="M198.85,165.36a2.57,2.57,0,0,0-3.07,1.75,274.05,274.05,0,0,0-17,57.8c-.36,2,1.67,4,3.68,2.83A472,472,0,0,0,227,197l1.44,45.87a2.52,2.52,0,0,0,4.66,1.26L263,199.41c1.8-2.68-2.53-5.19-4.31-2.52q-12.76,19-25.51,38.09-.67-21.51-1.36-43a2.53,2.53,0,0,0-4.26-1.77,461.79,461.79,0,0,1-42.83,30.26,273.12,273.12,0,0,1,15.86-52A2.52,2.52,0,0,0,198.85,165.36Z"/><path class="cls-1" d="M344,160.23a220.39,220.39,0,0,1-7.32,25.22l-19.05-17.14c-2.39-2.15-5.94,1.38-3.54,3.53L336,191.55a2.54,2.54,0,0,0,4.18-1.11,223.47,223.47,0,0,0,8.65-28.88C349.53,158.42,344.71,157.09,344,160.23Z"/><path class="cls-1" d="M165.45,57.76a2.57,2.57,0,0,0,2.5,2.5,2.51,2.51,0,0,0,2.5-2.5L166,17.68a266.5,266.5,0,0,0,27.39,22.07A2.51,2.51,0,0,0,197,38.26q3.31-17.55,6.64-35.1A2.57,2.57,0,0,0,201.91.08a2.52,2.52,0,0,0-3.08,1.75q-3,15.73-6,31.46A259.6,259.6,0,0,1,164.49,9.45c-1.42-1.38-4.53-.5-4.27,1.76Q162.83,34.49,165.45,57.76Z"/><path class="cls-1" d="M482.6,587a32,32,0,0,0-22.77-12.46,31.48,31.48,0,0,0-14.66,2.11,3.41,3.41,0,0,0-1.1.73,29,29,0,0,0-27.49-7.13,23.37,23.37,0,0,0-11.46,7l-13.47-30.92c-3-6.83-5.93-14.19-11.57-19.3a20.32,20.32,0,0,0-15.29-5.34,2.55,2.55,0,0,0-.66-1.4c-6.41-7.06-17.74-8.86-25.83-3.67S326.45,532,330,540.89a20.9,20.9,0,0,0,10.09,11.22,52.34,52.34,0,0,0,.32,7.32c1,8.92,3.63,17.59,6.56,26a243.64,243.64,0,0,0,10.39,25.15c1,2.1,2,4.21,3.07,6.31-17.57,6.18-26.64,24.74-30.57,41.79-2.34,10.2-3.19,21-.69,31.28a38.64,38.64,0,0,0,15.36,23c7.94,5.52,18.54,7.89,27.7,4.11A2.59,2.59,0,0,0,374,714a2.51,2.51,0,0,0-3.08-1.74c-7.17,3-15,1.68-21.61-2.18a32.57,32.57,0,0,1-14.57-18.77c-2.83-9.14-2.49-19-.66-28.3a77.16,77.16,0,0,1,8.6-24c4.44-7.64,10.82-14.41,19.35-17.34a3,3,0,0,0,.69-.35,80.6,80.6,0,0,0,6.54,10.38,43,43,0,0,0,7.56,7.88,2.75,2.75,0,0,0-.14.85,33.31,33.31,0,0,1-18.55,29.74,2.5,2.5,0,0,0,2.53,4.31,38.32,38.32,0,0,0,21-31.93,19.93,19.93,0,0,0,4.57,1.51,19.63,19.63,0,0,0,5.3.33,2.57,2.57,0,0,0,2.5-2.5,2.52,2.52,0,0,0-2.5-2.5c-6.36.49-11.59-3.07-15.7-7.59-4.9-5.39-8.25-12-11.51-18.46a239.1,239.1,0,0,1-10.32-23.28,163.58,163.58,0,0,1-7.45-24.18c-1.66-7.78-2.24-16,.3-23.68a24,24,0,0,1,12-13.73c5.34-2.67,11.41-2.63,16.36.87,5.38,3.79,8.29,10.45,10.85,16.28,7.28,16.58,14.47,33.2,21.7,49.8.92,2.13,1.85,4.25,2.77,6.37a2.52,2.52,0,0,0,3.42.9,2.57,2.57,0,0,0,.9-3.42l-7.34-16.85c4.66-7.26,14.27-9.43,22.3-7.51,9.62,2.29,16.12,10.47,18.85,19.71a44.36,44.36,0,0,1,1.34,17.72,2.51,2.51,0,0,0,2.5,2.5,2.56,2.56,0,0,0,2.5-2.5c1.28-10.78-1-22.43-7.53-31.21a27.83,27.83,0,0,1,21.24.74,27.45,27.45,0,0,1,15.34,28.43,2.58,2.58,0,0,0,1.75,3.07,2.52,2.52,0,0,0,3.08-1.74A32.88,32.88,0,0,0,482.6,587ZM344.46,535.24a31.7,31.7,0,0,0-3.9,11.36c-5.11-3.56-8.08-10-6.5-16.23a15.48,15.48,0,0,1,15.71-11.79,15.82,15.82,0,0,1,9.79,4.15A28.63,28.63,0,0,0,344.46,535.24Z"/><path class="cls-1" d="M135.2,598.81c1-3-3.79-4.36-4.83-1.33l-.42,1.26a22,22,0,0,0-9.74-9.43L132,584a2.51,2.51,0,0,0,.89-3.42,2.55,2.55,0,0,0-3.42-.9L86.79,599c-10.32,4.68-23.52,10.42-25.65,23-2,12,6,23.37,17.22,27,12.64,4.08,26.13-1,35.38-9.9C125,628.32,130.29,613.24,135.2,598.81ZM114,592.48a17.51,17.51,0,0,1,2.75.76,4.52,4.52,0,0,1,.47.18l.35.15c.39.19.78.38,1.17.6s.76.44,1.13.67l.54.37.44.32.36.29c.2.17.39.33.58.51s.64.6,1,.91.6.64.88,1c.11.12.21.25.31.37l.25.34a20,20,0,0,1,1.49,2.43c.1.19.19.39.28.59,0,0,.11.24.15.34.15.36.29.72.41,1.09a17.71,17.71,0,0,1,.66,2.77,1.31,1.31,0,0,0,.09.28c-3.19,8.77-7,17.39-12.9,24.62a2.33,2.33,0,0,0-2.16-.47,19.63,19.63,0,0,1-22.69-27.34l24-10.91A1.77,1.77,0,0,0,114,592.48ZM84,645.19a21.23,21.23,0,0,1-13.78-7.46,19.28,19.28,0,0,1-4.33-13.17c.59-9.47,9.55-14.73,17.54-18.51a25.79,25.79,0,0,0,1.7,16,24.34,24.34,0,0,0,16.24,13.31,25.3,25.3,0,0,0,8.35.67C102.67,642.4,93.66,646.51,84,645.19Z"/><path class="cls-1" d="M126.74,557.71a2.61,2.61,0,0,0,.42.16,2.69,2.69,0,0,0,2.09-.37c3-.09,5.88.5,8,2.46a9.84,9.84,0,0,1,3.09,5.63,4.86,4.86,0,0,1-1.93,5,2.5,2.5,0,0,0,0,3.53,2.56,2.56,0,0,0,3.54,0c4.42-3.43,4.1-9.83,1.55-14.28-2.79-4.89-7.87-7.07-13.23-7.27A12.93,12.93,0,0,0,122.2,543c-5.79-2.38-12.29-.77-18.15.65a14.56,14.56,0,0,0-7.81-9.54c-5.16-2.58-11-2.33-16.56-1.39a95,95,0,0,0-28.74,10A97,97,0,0,0,9.38,585.92,98.64,98.64,0,0,0,0,619.81a2.51,2.51,0,0,0,2.5,2.5,2.56,2.56,0,0,0,2.5-2.5,92,92,0,0,1,68.7-80.73c5.21-1.35,11.07-2.84,16.46-1.81,3.87.74,8.32,3.31,9.09,7.52a210.62,210.62,0,0,0-29.64,9.45c-10.88,4.53-21.34,10.38-30.08,18.38A71.27,71.27,0,0,0,21.37,599C17,610,16,622.46,19.67,633.85c1,3,5.82,1.74,4.82-1.33-6.11-18.77,2-39.09,15-52.89,14.94-15.77,36.32-23.5,56.84-28.93,3-.8,6-1.55,9.06-2.28a45,45,0,0,1,9.76-1.65,11.19,11.19,0,0,1,7.65,2.33,7.5,7.5,0,0,1,2.5,3.81c-6.33.88-12.54,3.24-18.58,5.15-7,2.22-14,4.57-20.79,7.36-12.59,5.17-24.63,11.83-34.53,21.29-9.16,8.74-16.42,19.94-18.84,32.5-2.65,13.73,0,28.51,9.31,39.28A2.5,2.5,0,1,0,45.44,655c-7.28-8.46-9.74-20-8.55-30.93,1.21-11.22,6.75-21.55,14.24-29.84,17.49-19.32,43.43-27.39,67.65-34.6A53.26,53.26,0,0,1,126.74,557.71Z"/><path class="cls-1" d="M159,718.78a2.36,2.36,0,0,0,1.18,2.51A24.08,24.08,0,0,0,168,724a9.87,9.87,0,0,0,6.69-1.57A7.24,7.24,0,0,0,178,716.3a6.47,6.47,0,0,0-3-5.46,2.93,2.93,0,0,0-.3-1.28L150,659.24a101.12,101.12,0,0,0,11.62-21.45c3.87-10.14,5.81-22,2.9-32.64-1.57-5.74-5-11.32-10.43-14.06-5-2.52-11.48-2.89-16.15.64a2.58,2.58,0,0,0-.9,3.42,2.53,2.53,0,0,0,3.42.9c3.41-2.58,7.92-2.39,11.58-.39,4.09,2.22,6.46,6.45,7.66,10.82,2.72,9.95.61,20.95-3.05,30.37-7.89,20.33-24,35.74-37.56,52.29-7.8,9.52-14.89,19.6-19.5,31.07a2.52,2.52,0,0,0,1.74,3.08,2.57,2.57,0,0,0,3.08-1.75c7.68-19.1,22.64-33.68,35.62-49.29Zm13-.57c-.08.06-.1.06,0,0Zm-25.34-54.37q11.84,24.12,23.66,48.25a1.85,1.85,0,0,0,.53.65,2.26,2.26,0,0,0,1.19,2.21c.14.06.3.18.44.24l0,0,.08.08c0,.1.18.3.2.34s.08.31.13.45v0c0,.15,0,.29,0,.44s0,.13,0,.19-.05.24-.08.35l-.06.19-.18.32s0,0,0,0l0,0a5,5,0,0,1-.39.41l-.14.12c-.17.1-.32.21-.49.3l-.27.14-.45.16a5.24,5.24,0,0,1-1,.24h-.2a5.52,5.52,0,0,1-.58,0l-.57,0-.26,0-.1,0a26.56,26.56,0,0,1-2.89-.85l-.17-.06-.13-.06-.67-.3-.38-.18-20.27-49.67c.1-.11.19-.23.28-.34C144.83,666.31,145.76,665.08,146.69,663.84Z"/><path class="cls-1" d="M185.74,704a2.56,2.56,0,0,0-.89,3.42c2.5,5.58,1.23,12.7-2.6,17.39a16.21,16.21,0,0,1-16.94,5.1,16.81,16.81,0,0,1-8.91-5.82,2.52,2.52,0,0,0-3.53,0,2.56,2.56,0,0,0,0,3.54c5.08,6.38,13.92,9.05,21.79,7.4,8.11-1.69,14.26-8.52,15.93-16.52a21.9,21.9,0,0,0-1.43-13.62A2.52,2.52,0,0,0,185.74,704Z"/><path class="cls-1" d="M331.36,558.6a2.52,2.52,0,0,0,0-3.54c-9.45-7.85-13.31-21.51-8.5-33A29.62,29.62,0,0,1,334,508.84a27.83,27.83,0,0,1,17.24-4.35,29.15,29.15,0,0,1,18.55,8.61c2.25,2.31,5.79-1.23,3.54-3.53-10.18-10.42-26.79-13.22-39.67-6.33a34.49,34.49,0,0,0-14.16,14.33,32.9,32.9,0,0,0-3.22,20.68,33.84,33.84,0,0,0,11.56,20.35A2.57,2.57,0,0,0,331.36,558.6Z"/></g></g></svg>